<svg width="597" height="121" viewBox="0 0 597 121" fill="none" xmlns="http://www.w3.org/2000/svg">
<path d="M0.0880003 93V3.39999H38.872C44.76 3.39999 49.88 4.38133 54.232 6.34399C58.584 8.30666 61.9547 11.08 64.344 14.664C66.7333 18.1627 67.928 22.3013 67.928 27.08C67.928 31.432 66.8187 35.272 64.6 38.6C62.3813 41.928 59.2667 44.5733 55.256 46.536C60.2907 48.328 64.216 51.0587 67.032 54.728C69.9333 58.312 71.384 62.536 71.384 67.4C71.384 72.6053 70.104 77.128 67.544 80.968C65.0693 84.808 61.4853 87.7947 56.792 89.928C52.184 91.976 46.7653 93 40.536 93H0.0880003ZM13.528 41.416H38.104C43.1387 41.416 47.1493 40.2213 50.136 37.832C53.1227 35.4427 54.616 32.2 54.616 28.104C54.616 24.008 53.1227 20.7653 50.136 18.376C47.1493 15.9867 43.1387 14.792 38.104 14.792H13.528V41.416ZM13.528 81.608H39.512C45.144 81.608 49.5813 80.2853 52.824 77.64C56.152 74.9947 57.816 71.4107 57.816 66.888C57.816 62.4507 56.152 58.9093 52.824 56.264C49.5813 53.5333 45.144 52.168 39.512 52.168H13.528V81.608ZM105.035 94.152C100.342 94.152 96.203 93.3413 92.619 91.72C89.035 90.0133 86.219 87.6667 84.171 84.68C82.123 81.6933 81.099 78.2373 81.099 74.312C81.099 68.168 83.4457 63.3467 88.139 59.848C92.8323 56.264 99.275 54.472 107.467 54.472C113.867 54.472 119.798 55.7093 125.259 58.184V51.272C125.259 46.5787 123.894 43.08 121.163 40.776C118.518 38.472 114.592 37.32 109.387 37.32C106.4 37.32 103.286 37.7893 100.043 38.728C96.8003 39.5813 93.1737 40.9467 89.163 42.824L84.427 33.224C89.3763 30.92 93.9843 29.256 98.251 28.232C102.518 27.1227 106.827 26.568 111.179 26.568C119.627 26.568 126.155 28.5733 130.763 32.584C135.456 36.5947 137.803 42.312 137.803 49.736V93H125.259V87.368C122.358 89.672 119.243 91.3787 115.915 92.488C112.587 93.5973 108.96 94.152 105.035 94.152ZM93.387 74.056C93.387 77.2133 94.7097 79.7733 97.355 81.736C100.086 83.6133 103.627 84.552 107.979 84.552C111.392 84.552 114.507 84.0827 117.323 83.144C120.224 82.12 122.87 80.5413 125.259 78.408V67.4C122.784 65.9493 120.182 64.9253 117.451 64.328C114.806 63.6453 111.819 63.304 108.491 63.304C103.798 63.304 100.086 64.2853 97.355 66.248C94.7097 68.1253 93.387 70.728 93.387 74.056ZM152.552 93V3.39999L165.352 0.967995V33.992C170.813 29.2133 177.427 26.824 185.192 26.824C191.336 26.824 196.883 28.3173 201.832 31.304C206.867 34.2907 210.835 38.3013 213.736 43.336C216.637 48.3707 218.088 54.0453 218.088 60.36C218.088 66.6747 216.595 72.392 213.608 77.512C210.707 82.5467 206.739 86.5573 201.704 89.544C196.755 92.5307 191.165 94.024 184.936 94.024C181.352 94.024 177.853 93.4693 174.44 92.36C171.112 91.1653 168.04 89.5013 165.224 87.368V93H152.552ZM183.528 82.888C187.709 82.888 191.421 81.9067 194.664 79.944C197.992 77.9813 200.637 75.336 202.6 72.008C204.563 68.5947 205.544 64.7547 205.544 60.488C205.544 56.2213 204.563 52.3813 202.6 48.968C200.637 45.5547 197.992 42.8667 194.664 40.904C191.421 38.9413 187.709 37.96 183.528 37.96C179.859 37.96 176.445 38.6427 173.288 40.008C170.131 41.3733 167.485 43.2933 165.352 45.768V75.208C167.485 77.5973 170.131 79.4747 173.288 80.84C176.531 82.2053 179.944 82.888 183.528 82.888ZM232.779 120.52C231.414 120.52 230.134 120.435 228.939 120.264C227.744 120.179 226.763 120.008 225.995 119.752V108.488C227.531 108.829 229.408 109 231.627 109C237.6 109 241.91 105.8 244.555 99.4L247.371 93.128L221.259 27.848H235.467L254.411 77.512L275.403 27.848H289.227L257.739 101.064C255.691 105.672 253.515 109.384 251.211 112.2C248.907 115.101 246.262 117.192 243.275 118.472C240.288 119.837 236.79 120.52 232.779 120.52ZM297.177 119.112V27.848H309.849V34.12C315.31 29.256 321.966 26.824 329.817 26.824C335.961 26.824 341.508 28.3173 346.457 31.304C351.492 34.2907 355.46 38.3013 358.361 43.336C361.262 48.3707 362.713 54.0453 362.713 60.36C362.713 66.6747 361.22 72.392 358.233 77.512C355.332 82.5467 351.364 86.5573 346.329 89.544C341.38 92.5307 335.79 94.024 329.561 94.024C325.977 94.024 322.521 93.4693 319.193 92.36C315.865 91.1653 312.793 89.5013 309.977 87.368V119.112H297.177ZM328.153 82.888C332.334 82.888 336.046 81.9067 339.289 79.944C342.617 77.9813 345.262 75.336 347.225 72.008C349.188 68.5947 350.169 64.7547 350.169 60.488C350.169 56.2213 349.188 52.3813 347.225 48.968C345.262 45.5547 342.617 42.8667 339.289 40.904C336.046 38.9413 332.334 37.96 328.153 37.96C324.484 37.96 321.07 38.6427 317.913 40.008C314.756 41.3733 312.11 43.2933 309.977 45.768V75.208C312.11 77.5973 314.756 79.4747 317.913 80.84C321.156 82.2053 324.569 82.888 328.153 82.888ZM374.927 93V3.39999L387.727 0.967995V93H374.927ZM423.41 94.152C418.717 94.152 414.578 93.3413 410.994 91.72C407.41 90.0133 404.594 87.6667 402.546 84.68C400.498 81.6933 399.474 78.2373 399.474 74.312C399.474 68.168 401.821 63.3467 406.514 59.848C411.207 56.264 417.65 54.472 425.842 54.472C432.242 54.472 438.173 55.7093 443.634 58.184V51.272C443.634 46.5787 442.269 43.08 439.538 40.776C436.893 38.472 432.967 37.32 427.762 37.32C424.775 37.32 421.661 37.7893 418.418 38.728C415.175 39.5813 411.549 40.9467 407.538 42.824L402.802 33.224C407.751 30.92 412.359 29.256 416.626 28.232C420.893 27.1227 425.202 26.568 429.554 26.568C438.002 26.568 444.53 28.5733 449.138 32.584C453.831 36.5947 456.178 42.312 456.178 49.736V93H443.634V87.368C440.733 89.672 437.618 91.3787 434.29 92.488C430.962 93.5973 427.335 94.152 423.41 94.152ZM411.762 74.056C411.762 77.2133 413.085 79.7733 415.73 81.736C418.461 83.6133 422.002 84.552 426.354 84.552C429.767 84.552 432.882 84.0827 435.698 83.144C438.599 82.12 441.245 80.5413 443.634 78.408V67.4C441.159 65.9493 438.557 64.9253 435.826 64.328C433.181 63.6453 430.194 63.304 426.866 63.304C422.173 63.304 418.461 64.2853 415.73 66.248C413.085 68.1253 411.762 70.728 411.762 74.056ZM501.519 94.152C495.29 94.152 489.615 92.6587 484.495 89.672C479.375 86.6853 475.322 82.632 472.335 77.512C469.434 72.392 467.983 66.6747 467.983 60.36C467.983 54.0453 469.476 48.3707 472.463 43.336C475.45 38.216 479.46 34.1627 484.495 31.176C489.615 28.104 495.29 26.568 501.519 26.568C506.468 26.568 511.204 27.5067 515.727 29.384C520.335 31.2613 524.303 33.9067 527.631 37.32L519.695 46.152C517.22 43.4213 514.447 41.3733 511.375 40.008C508.303 38.6427 505.103 37.96 501.775 37.96C497.85 37.96 494.266 38.9413 491.023 40.904C487.866 42.8667 485.348 45.5547 483.471 48.968C481.594 52.3813 480.655 56.1787 480.655 60.36C480.655 64.5413 481.594 68.3387 483.471 71.752C485.348 75.1653 487.908 77.896 491.151 79.944C494.394 81.9067 498.02 82.888 502.031 82.888C505.359 82.888 508.474 82.248 511.375 80.968C514.276 79.6027 517.007 77.64 519.567 75.08L527.375 83.272C523.962 86.7707 519.994 89.4587 515.471 91.336C511.034 93.2133 506.383 94.152 501.519 94.152ZM567.034 94.152C560.634 94.152 554.831 92.6587 549.626 89.672C544.506 86.6853 540.41 82.632 537.338 77.512C534.351 72.392 532.858 66.6747 532.858 60.36C532.858 54.1307 534.309 48.4987 537.21 43.464C540.111 38.344 544.037 34.2907 548.986 31.304C553.935 28.232 559.439 26.696 565.498 26.696C571.557 26.696 576.933 28.232 581.626 31.304C586.319 34.2907 590.031 38.3867 592.762 43.592C595.578 48.712 596.986 54.5147 596.986 61V64.584H545.658C546.341 68.168 547.663 71.368 549.626 74.184C551.674 77 554.234 79.2187 557.306 80.84C560.463 82.4613 563.877 83.272 567.546 83.272C570.703 83.272 573.733 82.8027 576.634 81.864C579.621 80.84 582.095 79.3893 584.058 77.512L592.25 85.576C588.41 88.4773 584.442 90.6533 580.346 92.104C576.335 93.4693 571.898 94.152 567.034 94.152ZM545.786 54.984H584.314C583.802 51.5707 582.607 48.584 580.73 46.024C578.938 43.3787 576.677 41.3307 573.946 39.88C571.301 38.344 568.399 37.576 565.242 37.576C561.999 37.576 559.013 38.3013 556.282 39.752C553.551 41.2027 551.247 43.2507 549.37 45.896C547.578 48.456 546.383 51.4853 545.786 54.984Z" fill="#7E72F2"/>
</svg>
