<svg width="335" height="294" viewBox="0 0 335 294" fill="none" xmlns="http://www.w3.org/2000/svg">
<path d="M167.5 0C74.9824 0 0 60.915 0 136.094C0 168.547 14.002 198.252 37.2949 221.61C29.1162 254.587 1.7666 283.965 1.43945 284.292C0 285.797 -0.392578 288.021 0.458008 289.984C1.30859 291.947 3.14062 293.125 5.23438 293.125C48.6143 293.125 81.1328 272.318 97.2285 259.494C118.624 267.542 142.375 272.188 167.5 272.188C260.018 272.188 335 211.272 335 136.094C335 60.915 260.018 0 167.5 0ZM83.75 157.031C72.1689 157.031 62.8125 147.675 62.8125 136.094C62.8125 124.513 72.1689 115.156 83.75 115.156C95.3311 115.156 104.688 124.513 104.688 136.094C104.688 147.675 95.3311 157.031 83.75 157.031ZM167.5 157.031C155.919 157.031 146.562 147.675 146.562 136.094C146.562 124.513 155.919 115.156 167.5 115.156C179.081 115.156 188.438 124.513 188.438 136.094C188.438 147.675 179.081 157.031 167.5 157.031ZM251.25 157.031C239.669 157.031 230.312 147.675 230.312 136.094C230.312 124.513 239.669 115.156 251.25 115.156C262.831 115.156 272.188 124.513 272.188 136.094C272.188 147.675 262.831 157.031 251.25 157.031Z" fill="#7E72F2"/>
</svg>
