<svg width="332" height="335" viewBox="0 0 332 335" fill="none" xmlns="http://www.w3.org/2000/svg">
<path d="M165.714 0C74.183 0 0 69.6172 0 155.536C0 192.625 13.8527 226.574 36.8973 253.269C28.8058 290.956 1.74777 324.531 1.42411 324.905C0 326.625 -0.388393 329.167 0.453125 331.411C1.29464 333.654 3.10714 335 5.17857 335C48.096 335 80.2679 311.221 96.192 296.565C117.359 305.762 140.857 311.071 165.714 311.071C257.246 311.071 331.429 241.454 331.429 155.536C331.429 69.6172 257.246 0 165.714 0ZM82.8571 179.464C71.3996 179.464 62.1429 168.771 62.1429 155.536C62.1429 142.3 71.3996 131.607 82.8571 131.607C94.3147 131.607 103.571 142.3 103.571 155.536C103.571 168.771 94.3147 179.464 82.8571 179.464ZM165.714 179.464C154.257 179.464 145 168.771 145 155.536C145 142.3 154.257 131.607 165.714 131.607C177.172 131.607 186.429 142.3 186.429 155.536C186.429 168.771 177.172 179.464 165.714 179.464ZM248.571 179.464C237.114 179.464 227.857 168.771 227.857 155.536C227.857 142.3 237.114 131.607 248.571 131.607C260.029 131.607 269.286 142.3 269.286 155.536C269.286 168.771 260.029 179.464 248.571 179.464Z" fill="#7E72F2"/>
</svg>
