<svg width="335" height="335" viewBox="0 0 335 335" fill="none" xmlns="http://www.w3.org/2000/svg">
<path d="M167.537 81.592C120.006 81.592 81.6668 119.931 81.6668 167.463C81.6668 214.994 120.006 253.333 167.537 253.333C215.069 253.333 253.408 214.994 253.408 167.463C253.408 119.931 215.069 81.592 167.537 81.592ZM167.537 223.29C136.821 223.29 111.71 198.253 111.71 167.463C111.71 136.672 136.747 111.636 167.537 111.636C198.328 111.636 223.364 136.672 223.364 167.463C223.364 198.253 198.253 223.29 167.537 223.29V223.29ZM276.95 78.0795C276.95 89.215 267.981 98.1085 256.921 98.1085C245.785 98.1085 236.892 89.1403 236.892 78.0795C236.892 67.0187 245.86 58.0505 256.921 58.0505C267.981 58.0505 276.95 67.0187 276.95 78.0795ZM333.823 98.4074C332.552 71.5775 326.424 47.8118 306.769 28.2312C287.188 8.65058 263.422 2.52231 236.593 1.17708C208.941 -0.392359 126.059 -0.392359 98.4074 1.17708C71.6523 2.44757 47.8865 8.57585 28.2312 28.1564C8.57585 47.737 2.52231 71.5028 1.17708 98.3327C-0.392359 125.985 -0.392359 208.866 1.17708 236.518C2.44757 263.348 8.57585 287.113 28.2312 306.694C47.8865 326.275 71.5775 332.403 98.4074 333.748C126.059 335.318 208.941 335.318 236.593 333.748C263.422 332.478 287.188 326.349 306.769 306.694C326.349 287.113 332.478 263.348 333.823 236.518C335.392 208.866 335.392 126.059 333.823 98.4074V98.4074ZM298.1 266.188C292.27 280.836 280.985 292.121 266.262 298.025C244.216 306.769 191.901 304.751 167.537 304.751C143.174 304.751 90.7844 306.694 68.8123 298.025C54.1642 292.195 42.8793 280.91 36.9752 266.188C28.2312 244.141 30.249 191.826 30.249 167.463C30.249 143.099 28.3059 90.7097 36.9752 68.7376C42.8045 54.0895 54.0895 42.8045 68.8123 36.9004C90.8592 28.1564 143.174 30.1743 167.537 30.1743C191.901 30.1743 244.29 28.2312 266.262 36.9004C280.911 42.7298 292.195 54.0148 298.1 68.7376C306.844 90.7844 304.826 143.099 304.826 167.463C304.826 191.826 306.844 244.216 298.1 266.188Z" fill="#7E72F2"/>
</svg>
