<svg width="355" height="389" viewBox="0 0 355 389" fill="none" xmlns="http://www.w3.org/2000/svg">
<path d="M317.53 22.7853C277.493 -10.8795 215.635 -5.82287 177.329 33.1757C139.023 -5.82287 77.166 -10.9488 37.1284 22.7853C-14.9621 66.6328 -7.34246 138.119 29.7859 176.009L151.284 299.793C158.211 306.859 167.493 310.807 177.329 310.807C187.235 310.807 196.448 306.928 203.375 299.862L324.873 176.078C361.932 138.188 369.69 66.702 317.53 22.7853V22.7853ZM301.183 152.665L179.685 276.449C178.022 278.112 176.637 278.112 174.974 276.449L53.4759 152.665C28.1927 126.897 23.0667 78.1315 58.5326 48.2764C85.4783 25.6254 127.04 29.0196 153.085 55.5497L177.329 80.2788L201.574 55.5497C227.757 28.881 269.319 25.6254 296.126 48.2071C331.523 78.0622 326.258 127.105 301.183 152.665Z" fill="white"/>
<path d="M317.53 100.785C277.493 67.1205 215.635 72.1771 177.329 111.176C139.023 72.1771 77.166 67.0512 37.1284 100.785C-14.9621 144.633 -7.34246 216.119 29.7859 254.009L151.284 377.793C158.211 384.859 167.493 388.807 177.329 388.807C187.235 388.807 196.448 384.928 203.375 377.862L324.873 254.078C361.932 216.188 369.69 144.702 317.53 100.785V100.785ZM301.183 230.665L179.685 354.449C178.022 356.112 176.637 356.112 174.974 354.449L53.4759 230.665C28.1927 204.897 23.0667 156.131 58.5326 126.276C85.4783 103.625 127.04 107.02 153.085 133.55L177.329 158.279L201.574 133.55C227.757 106.881 269.319 103.625 296.126 126.207C331.523 156.062 326.258 205.105 301.183 230.665Z" fill="white"/>
</svg>
