<?xml version="1.0" encoding="utf-8"?>
<!-- Generator: Adobe Illustrator 19.1.0, SVG Export Plug-In . SVG Version: 6.00 Build 0)  -->
<svg version="1.1" id="Layer_1" xmlns="http://www.w3.org/2000/svg" xmlns:xlink="http://www.w3.org/1999/xlink" x="0px" y="0px"
	 width="1400px" height="980px" viewBox="0 0 1400 980" enable-background="new 0 0 1400 980" xml:space="preserve">
<g>
	<path fill-rule="evenodd" clip-rule="evenodd" fill="#7CECDB" d="M893.8,807.9c-48.5-8.4-103.6-29.1-153-25.7
		c-17.8,1.2-34.9,8.3-52.8,10.3c-27.1,3-53.9,6.6-80.6,12.6c-48.7,11.1-95.6,30.4-145.2,35.8c-118.7,12.8-244-67.4-291-175.6
		c-22.6-52-27.1-110.6-19.6-166.8c10.1-75.9,45.8-153.1,112.1-191.3c43.7-25.2,89.9-31.3,138.3-25.6c55.4,6.6,112.3,0.7,165.1-17.5
		c62.2-21.4,117.5-58.8,177.5-85.8c98-44.1,215.2-58.6,311.7-11.5c62.2,30.3,113.9,91.1,148,151c36.6,64.2,53.6,139.9,45.5,213.5
		c-8.9,81-47.8,157.8-106,214.6c-27.7,27-59.4,53-97.6,60.9c-51.2,10.6-99.8,10.1-151.4,1.3C894.5,808.1,894.2,808,893.8,807.9z"/>
	<g>
		<defs>
			<path id="SVGID_1_" d="M893.8,807.9c-48.5-8.4-103.6-29.1-153-25.7c-17.8,1.2-34.9,8.3-52.8,10.3c-27.1,3-53.9,6.6-80.6,12.6
				c-48.7,11.1-95.6,30.4-145.2,35.8c-118.7,12.8-244-67.4-291-175.6c-22.6-52-27.1-110.6-19.6-166.8
				c10.1-75.9,45.8-153.1,112.1-191.3c43.7-25.2,89.9-31.3,138.3-25.6c55.4,6.6,112.3,0.7,165.1-17.5
				c62.2-21.4,117.5-58.8,177.5-85.8c98-44.1,215.2-58.6,311.7-11.5c62.2,30.3,113.9,91.1,148,151c36.6,64.2,53.6,139.9,45.5,213.5
				c-8.9,81-47.8,157.8-106,214.6c-27.7,27-59.4,53-97.6,60.9c-51.2,10.6-99.8,10.1-151.4,1.3C894.5,808.1,894.2,808,893.8,807.9z"
				/>
		</defs>
		<clipPath id="SVGID_2_">
			<use xlink:href="#SVGID_1_"  overflow="visible"/>
		</clipPath>
		<path clip-path="url(#SVGID_2_)" fill-rule="evenodd" clip-rule="evenodd" fill="#B5F3FF" d="M1210.6,254
			c-21.2-56.9-90.5-90.7-148.4-72.4c-57.9,18.3-95.1,85.9-79.7,144.6c-15.9-7.6-35.9-5.5-50,5c-14.1,10.6-21.6,29.3-18.7,46.7
			c-21.4-3.5-44.6,1.2-61.1,15.3s-24.8,38.1-17.7,58.6c6.6,19.1,24.5,32.1,42.9,40.3c35.5,15.8,76.8,18.2,113.9,6.7
			c16.9-5.3,33.6-13.4,51.3-12.9c15.1,0.4,29.2,7.2,43.4,12.3c85.9,30.8,190.3-1.6,243.6-75.6L1210.6,254z"/>
		<path clip-path="url(#SVGID_2_)" fill-rule="evenodd" clip-rule="evenodd" fill="#B5F3FF" d="M100.6,332.7
			c98.9-31.2,213.7-5.4,289.7,65.2S500.6,581.1,476.7,682c23.5-12.2,54.1-9.1,74.7,7.6s29.9,46,22.8,71.5
			c17.7-20.6,47.5-27.5,74.4-23.4c26.8,4.1,51.3,17.5,74.2,32c32.8,20.6,67.6,52,62.2,90.3c-3.1,21.7-19.3,39.7-38.4,50.4
			c-19.1,10.7-41,15.2-62.5,19.1c-138.1,25.3-282.8,34.7-417-6.4c-134.2-41-256.8-139.9-296.7-274.5L100.6,332.7z"/>
		<g clip-path="url(#SVGID_2_)">
			<path fill-rule="evenodd" clip-rule="evenodd" fill="#FFA372" d="M992.1,467.2C862.1,443,721.2,488.9,630.4,585
				c60.5,33.8,127.5,54.1,193.9,74.2c32.3,9.8,65.9,19.7,99.4,15.4c33.5-4.3,67.2-26.8,73.3-60L992.1,467.2z"/>
			<path fill-rule="evenodd" clip-rule="evenodd" fill="#00144F" d="M741.9,409.9L408.2,381c-22.2-1.9-41.7,14.5-43.6,36.6
				l-16,184.8c-1.9,22.2,14.5,41.7,36.6,43.6l455.8,39.4c22.2,1.9,41.7-14.5,43.6-36.6l10.5-120.8c-16.4-12.8-32.4-26.6-48.6-40.5
				C812.6,458.3,778.9,434.9,741.9,409.9z"/>
			<path fill-rule="evenodd" clip-rule="evenodd" fill="#000A31" d="M900.6,464l-5.5,64c-16.4-12.8-32.4-26.6-48.6-40.5
				c-4.5-3.9-9-7.7-13.5-11.4c-26.3-21.6-52.8-40.3-81.1-59.5c-3.3-2.3-6.6-4.5-10-6.8L864,420.4C886.1,422.3,902.6,441.9,900.6,464
				z"/>
			<path fill-rule="evenodd" clip-rule="evenodd" fill="#DEFAF6" d="M833,476.2l-17.1,198.1L412,639.3l21.6-250.2l318.2,27.5
				C780.2,435.9,806.7,454.6,833,476.2z"/>
			<path fill-rule="evenodd" clip-rule="evenodd" fill="#C5F6EF" d="M837.5,424.1l-4.5,52.1c-26.3-21.6-52.8-40.3-81.1-59.5
				L837.5,424.1z"/>
			<g>
				<defs>
					
						<rect id="SVGID_3_" x="422" y="407.7" transform="matrix(0.9963 8.620036e-002 -8.620036e-002 0.9963 48.2906 -51.8586)" width="405.4" height="251.1"/>
				</defs>
				<clipPath id="SVGID_4_">
					<use xlink:href="#SVGID_3_"  overflow="visible"/>
				</clipPath>
				<path clip-path="url(#SVGID_4_)" fill-rule="evenodd" clip-rule="evenodd" fill="#7CECDB" d="M188.3,608l-7.1,82.6l863.4,74.7
					l7.8-89.6l-1.1-0.1l-4,45.8l-2.7-0.2l3.9-45.4l-4.2-0.4l-4.8-10.2l-3.9-0.3l0.3-4.6l-8.5-0.7l-0.4,4.5l-3.1-0.3l-6.6,9.4
					l-4.4-0.3l-4.1,47.7l-2.1-0.2l0.4-4.8l-2.1-0.2l7.8-89.9l-5.9-0.5l0.4-4.1l-7.9-7.8l0.5-6l-6.3-0.5l0.7-7.9l-3.9-0.3l1.1-13
					l-2.8-0.2l-1.1,13l-3.9-0.3l-0.6,7.9l-6.2-0.5l-0.5,5.8l-10.9,7.6l-0.3,3l-4.9-0.4l-2.2,25.7l-14-1.2l-1.3,15.5l-5.5-0.5
					l-1.8,21.1l-12.1-1l4-46.3l-3.9-0.3l1.6-18.9l-5.8-0.5l5.4-62.7l-4.9-0.4l0.2-1.9l-7.3-0.6l0.9-11.2l-2.2-0.1l-0.9,11.1
					l-26.2-2.3l-0.2,2.3l-5-0.4l-4.8,55l-4.3,3l-10.6-0.9l2.8-32.8l-13.7-13.6l-24.5-2.1l-0.8,9.5l-5.9-0.5l-3.1,35.8l-7.2-0.6
					l1.3-15.2l-16.5-1.4l-1.6,18.7l-4.2-0.4l5.6-64.7l-2.8-0.2l0.2-2.6l-10.3-0.9l0.5-6.3l-10.1-0.9l-0.5,6.3l-10.3-0.9l-0.2,2.6
					l-3.1-0.3l-6.5,74.7l-7.8-0.7l10.9-125.8l-3.9-0.3l1.8-21.2l-4.6-0.5l-2,21.3l-27.2-2.4l3.7-43.8l-4.7-0.3L711,480l-4-0.3
					l-14.1,162.5l-6.3-0.5l8.9-102.5l-3-0.3l0.3-3.7l-4.1-0.4l-0.3,3.7l-4.1-0.4l0.1-1.1l-3.2-0.3l-0.1,1.1l-3.7-0.3l0.1-1.1
					l-4.6-0.4l-0.1,1.1l-5.1-0.4l0.2-2.7l-3.5-0.3l-0.2,2.7l-1.6-0.1l0.1-1.1l-3.2-0.3l-0.1,1.1l-4.3-0.4l-8.4,94.7l-0.7,7.8l-1-0.1
					l-5.5-0.6l9.7-112.1l-14.6-1.3l0.5-6.3l-6.6-0.6l-0.5,6.3L623,523l0.1-1l-4.9-0.4l-0.1,1l-4.9-0.4l0.1-1l-2.5-0.2l-0.1,1l-3-0.3
					l-9.1,105.5l-4.9-0.4l-10.2,11.7l-1.4,1.6l8.3-96.5l-2.6-0.2l0.3-4l-2.6-0.2l-0.2,2l-1.7-0.1l-0.2,2.1l-14.6-1.3l0.1-1.3
					l-4.3-0.4l-0.1,1.3l-3.4-0.3l0.8-9.3l-1.7-0.2l-0.8,9.3l-12.9-1.1l0.2-1.9l-2-0.2l-0.2,1.9l-1.4-0.1l-8.6,99.6l-19.5-1.7
					l12.6-145.7l-21.8-6.1l0.8-17c2.3-0.7,4-2.2,4.1-4.2c0.2-2.1-1.4-4-3.8-5.1l1.1-34l1.1-34.6l-3.9,34.4l-4.5,33.8
					c-2.5,0.6-4.3,2.2-4.5,4.3c-0.2,1.9,1.2,3.7,3.3,4.8l-2.4,17l-20.6,2l-12.3,142.7l-15-1.3l7.4-85.1l-13.6-1.2l0.7-9.2l-4.6-0.4
					l0.5-6.7l-8.3-0.8l-0.6,6.8l-3.3-0.3l-0.8,9.1l-26.7-2.3l-0.5,5.5l-7.6-0.7l-2,23l-2.5-0.2l-14.5,9l-2.8,32.8l-10.1-0.9l0.2-2.7
					l-12.3-1.1l-0.3,2.7l-13.8-1.2l0.8-8.9l-6.1-0.5l0.6-6.8l-7.8-0.7l-0.6,6.8l-2.5-0.2l-2.3,26.6l-7-0.6l-1,11.7l-6.8-0.6l2-23.4
					l-7.4-0.6l0.5-6.3l-14.6-1.3l-0.9,10.1l-4.4-0.4l-1.7,20.5l-12.7-1l0.3-3.5l-1.5-0.1l0.3-3.5l-6.1-0.5l0.4-4.2l-11.3-1l-0.3,4.2
					l-6.6-0.6l-0.3,3.5l-9.4-0.8l-0.4,4.1l-10.7-0.9l0.8-9l-8.3-0.7l-0.6,6.5l-6.8-0.6l1.1-12.5L188.3,608L188.3,608z"/>
				<path clip-path="url(#SVGID_4_)" fill-rule="evenodd" clip-rule="evenodd" fill="#904021" d="M564.6,474.9
					c5-28.2,23.4-59.3,55.6-59.2c14.2,0,28.2,6.7,37.1,17.7c15-0.5,33.7,7.1,41.7,20.5c8.4,14.1,7.7,34.5,7.9,50.4
					c0.2,13.9-0.7,28.3,0.5,42.2c1.2,14,12.3,23.2,16.5,36.1c2.7,8.2,2.1,16.8,0.2,25c-1.5,6.5-3.9,12.8-6.5,19
					c-1.1,2.6-10.3,24.3-12,23.9c-0.1,0-155.8-31.7-155.8-31.7c-8.4-7.6-20.9-19.6-17.9-36.7c4.6-26.3,19.4-47.5,28-73.2
					C563.3,498.6,562.5,486.6,564.6,474.9z"/>
				<path clip-path="url(#SVGID_4_)" fill-rule="evenodd" clip-rule="evenodd" fill="#58150C" d="M638.8,465
					c5.5,25.7,22.8,50.1,45.4,74l0,0c1.8,36.3,41,39.9,4,98.7L552,620.2l-2.9-2.2l-0.4-0.3l0,0l-0.3-0.3l-0.1-0.1l-0.2-0.2l-0.2-0.2
					l-0.3-0.3l-0.1-0.1l-0.3-0.3l-0.1-0.1l-0.3-0.2l-0.2-0.1l-0.3-0.3l-0.2-0.2l-0.2-0.2l-0.2-0.2l-0.3-0.3l-0.2-0.2l-0.3-0.2
					l-0.2-0.2l-0.2-0.2l-0.2-0.2l-0.2-0.2l-0.2-0.2l-0.2-0.2l-0.2-0.2l-0.2-0.2l-0.2-0.2c-0.1-0.1-0.2-0.2-0.3-0.3l-0.2-0.2
					l-0.2-0.3l-0.2-0.2l-0.2-0.3l-0.2-0.2l-0.2-0.2l-0.2-0.2l-0.2-0.2c-0.1-0.1-0.1-0.2-0.2-0.2c-0.1-0.1-0.1-0.2-0.2-0.3
					c-0.1-0.1-0.1-0.2-0.2-0.2c-0.1-0.1-0.1-0.2-0.2-0.2c-0.1-0.1-0.1-0.2-0.2-0.3c-0.1-0.1-0.1-0.2-0.2-0.2
					c-0.1-0.1-0.1-0.2-0.2-0.2c-0.1-0.1-0.1-0.2-0.2-0.3c-0.1-0.1-0.1-0.2-0.2-0.3c-0.1-0.1-0.1-0.2-0.2-0.3
					c-0.1-0.1-0.2-0.2-0.2-0.3c-0.1-0.1-0.1-0.1-0.2-0.2c-0.1-0.1-0.2-0.2-0.2-0.3c0-0.1-0.1-0.1-0.1-0.2c-0.3-0.4-0.5-0.7-0.8-1.1
					l0,0c0,0-0.1-0.1-0.1-0.1c-0.1-0.1-0.2-0.3-0.3-0.4c0-0.1-0.1-0.1-0.1-0.2c-0.1-0.1-0.2-0.2-0.2-0.4c-0.1-0.1-0.1-0.2-0.2-0.3
					c-0.1-0.1-0.1-0.2-0.2-0.3c-0.1-0.1-0.1-0.2-0.2-0.3c-0.1-0.1-0.1-0.2-0.2-0.3c-0.1-0.1-0.1-0.2-0.2-0.3
					c-0.1-0.1-0.1-0.2-0.2-0.3c-0.1-0.1-0.1-0.2-0.2-0.3c-0.1-0.1-0.1-0.2-0.2-0.3c0-0.1-0.1-0.2-0.1-0.3c-0.1-0.1-0.1-0.2-0.2-0.3
					c0-0.1-0.1-0.2-0.1-0.3c-0.1-0.1-0.1-0.2-0.2-0.3c0-0.1-0.1-0.2-0.1-0.3c-0.1-0.1-0.1-0.2-0.2-0.3c0-0.1-0.1-0.2-0.1-0.3
					c-0.1-0.1-0.1-0.2-0.2-0.3c0-0.1-0.1-0.2-0.1-0.3c-0.1-0.1-0.1-0.2-0.2-0.3c0-0.1-0.1-0.2-0.1-0.3c0-0.1-0.1-0.2-0.1-0.3
					c0-0.1-0.1-0.2-0.1-0.3c0-0.1-0.1-0.2-0.1-0.3c0-0.1-0.1-0.2-0.1-0.3c0-0.1-0.1-0.2-0.1-0.3c0-0.1-0.1-0.2-0.1-0.3
					c0-0.1-0.1-0.2-0.1-0.3c0-0.1-0.1-0.2-0.1-0.3c0-0.1-0.1-0.2-0.1-0.4c0-0.1-0.1-0.2-0.1-0.3c0-0.1-0.1-0.2-0.1-0.4
					c0-0.1-0.1-0.2-0.1-0.3c0-0.1-0.1-0.2-0.1-0.3c0-0.1-0.1-0.2-0.1-0.3c0-0.1-0.1-0.2-0.1-0.4c0-0.1,0-0.2-0.1-0.3
					c0-0.1-0.1-0.2-0.1-0.4c0-0.1,0-0.2-0.1-0.3c0-0.1,0-0.2-0.1-0.4c0-0.1,0-0.2-0.1-0.3c0-0.1,0-0.2-0.1-0.4c0-0.1,0-0.2-0.1-0.3
					c0-0.1,0-0.3-0.1-0.4c0-0.1,0-0.2,0-0.3c0-0.1,0-0.3,0-0.4c0-0.1,0-0.2,0-0.3c0-0.1,0-0.3,0-0.4c0-0.1,0-0.2,0-0.3
					c0-0.1,0-0.2,0-0.4c0-0.1,0-0.2,0-0.4c0-0.1,0-0.2,0-0.4c0-0.1,0-0.2,0-0.4c0-0.1,0-0.3,0-0.4c0-0.1,0-0.2,0-0.3
					c0-0.1,0-0.3,0-0.4c0-0.1,0-0.2,0-0.3c0-0.1,0-0.3,0-0.4c0-0.1,0-0.2,0-0.3c0-0.1,0-0.3,0-0.4c0-0.1,0-0.2,0-0.3
					c0-0.2,0-0.3,0-0.5c0-0.1,0-0.2,0-0.3c0-0.1,0-0.3,0-0.5c0-0.1,0-0.2,0-0.3c0-0.2,0-0.4,0.1-0.5c0-0.1,0-0.2,0-0.2
					c0-0.3,0.1-0.5,0.1-0.8c4.6-26.3,19.4-47.5,28-73.2c1.5-4.6,2.2-9.5,2.7-14.6l0,0c5.8-4,8.6-5.6,14.5-7.8
					C613.2,487.3,627.9,474.5,638.8,465L638.8,465z"/>
				<path clip-path="url(#SVGID_4_)" fill-rule="evenodd" clip-rule="evenodd" fill="#6D2519" d="M559.9,620.6l-7.9-0.4l-2.9-2.2
					l-0.4-0.3l0,0l-0.3-0.3l-0.1-0.1l-0.2-0.2l-0.2-0.2l-0.3-0.3l-0.1-0.1l-0.3-0.3l-0.1-0.1l-0.3-0.2l-0.2-0.1l-0.3-0.3l-0.2-0.2
					l-0.2-0.2l-0.2-0.2l-0.3-0.3l-0.2-0.2l-0.3-0.2l-0.2-0.2l-0.2-0.2l-0.2-0.2l-0.2-0.2l-0.2-0.2l-0.2-0.2l-0.2-0.2l-0.2-0.2
					l-0.2-0.2c-0.1-0.1-0.2-0.2-0.3-0.3l-0.2-0.2l-0.2-0.3l-0.2-0.2l-0.2-0.3l-0.2-0.2l-0.2-0.2l-0.2-0.2l-0.2-0.2
					c-0.1-0.1-0.1-0.2-0.2-0.2c-0.1-0.1-0.1-0.2-0.2-0.3c-0.1-0.1-0.1-0.2-0.2-0.2c-0.1-0.1-0.1-0.2-0.2-0.2
					c-0.1-0.1-0.1-0.2-0.2-0.3c-0.1-0.1-0.1-0.2-0.2-0.2c-0.1-0.1-0.1-0.2-0.2-0.2c-0.1-0.1-0.1-0.2-0.2-0.3
					c-0.1-0.1-0.1-0.2-0.2-0.3c-0.1-0.1-0.1-0.2-0.2-0.3c-0.1-0.1-0.2-0.2-0.2-0.3c-0.1-0.1-0.1-0.1-0.2-0.2
					c-0.1-0.1-0.2-0.2-0.2-0.3c0-0.1-0.1-0.1-0.1-0.2c-0.3-0.4-0.5-0.7-0.8-1.1l0,0c0,0-0.1-0.1-0.1-0.1c-0.1-0.1-0.2-0.3-0.3-0.4
					c0-0.1-0.1-0.1-0.1-0.2c-0.1-0.1-0.2-0.2-0.2-0.4c-0.1-0.1-0.1-0.2-0.2-0.3c-0.1-0.1-0.1-0.2-0.2-0.3c-0.1-0.1-0.1-0.2-0.2-0.3
					c-0.1-0.1-0.1-0.2-0.2-0.3c-0.1-0.1-0.1-0.2-0.2-0.3c-0.1-0.1-0.1-0.2-0.2-0.3c-0.1-0.1-0.1-0.2-0.2-0.3
					c-0.1-0.1-0.1-0.2-0.2-0.3c0-0.1-0.1-0.2-0.1-0.3c-0.1-0.1-0.1-0.2-0.2-0.3c0-0.1-0.1-0.2-0.1-0.3c-0.1-0.1-0.1-0.2-0.2-0.3
					c0-0.1-0.1-0.2-0.1-0.3c-0.1-0.1-0.1-0.2-0.2-0.3c0-0.1-0.1-0.2-0.1-0.3c-0.1-0.1-0.1-0.2-0.2-0.3c0-0.1-0.1-0.2-0.1-0.3
					c-0.1-0.1-0.1-0.2-0.2-0.3c0-0.1-0.1-0.2-0.1-0.3c0-0.1-0.1-0.2-0.1-0.3c0-0.1-0.1-0.2-0.1-0.3c0-0.1-0.1-0.2-0.1-0.3
					c0-0.1-0.1-0.2-0.1-0.3c0-0.1-0.1-0.2-0.1-0.3c0-0.1-0.1-0.2-0.1-0.3c0-0.1-0.1-0.2-0.1-0.3c0-0.1-0.1-0.2-0.1-0.3
					c0-0.1-0.1-0.2-0.1-0.4c0-0.1-0.1-0.2-0.1-0.3c0-0.1-0.1-0.2-0.1-0.3c0-0.1-0.1-0.2-0.1-0.3c0-0.1-0.1-0.2-0.1-0.3
					c0-0.1-0.1-0.2-0.1-0.3c0-0.1-0.1-0.2-0.1-0.4c0-0.1,0-0.2-0.1-0.3c0-0.1-0.1-0.2-0.1-0.4c0-0.1,0-0.2-0.1-0.3
					c0-0.1,0-0.2-0.1-0.4c0-0.1,0-0.2-0.1-0.3c0-0.1,0-0.2-0.1-0.4c0-0.1,0-0.2-0.1-0.3c0-0.1,0-0.3-0.1-0.4c0-0.1,0-0.2,0-0.3
					c0-0.1,0-0.3,0-0.4c0-0.1,0-0.2,0-0.3c0-0.1,0-0.3,0-0.4c0-0.1,0-0.2,0-0.3c0-0.1,0-0.2,0-0.4c0-0.1,0-0.2,0-0.4
					c0-0.1,0-0.2,0-0.4c0-0.1,0-0.2,0-0.4c0-0.1,0-0.3,0-0.4c0-0.1,0-0.2,0-0.3c0-0.1,0-0.3,0-0.4c0-0.1,0-0.2,0-0.3
					c0-0.1,0-0.3,0-0.4c0-0.1,0-0.2,0-0.3c0-0.1,0-0.3,0-0.4c0-0.1,0-0.2,0-0.3c0-0.2,0-0.3,0-0.5c0-0.1,0-0.2,0-0.3
					c0-0.1,0-0.3,0-0.5c0-0.1,0-0.2,0-0.3c0-0.2,0-0.4,0.1-0.5c0-0.1,0-0.2,0-0.2c0-0.3,0.1-0.5,0.1-0.8c4.6-26.3,19.4-47.5,28-73.2
					c1.5-4.6,2.2-9.5,2.7-14.6l0,0c1-0.7,2.7-4.1,5.3-5.4c3.6-1.9,8.2-1.7,9.2-2.3c-1.4,52.4-66.2,89.6-21.9,129.6
					C557,617.8,558.6,619.3,559.9,620.6"/>
				<path clip-path="url(#SVGID_4_)" fill-rule="evenodd" clip-rule="evenodd" fill="#00206A" d="M821.5,645.5
					c0.9,3.3,5.1,15.7-5.8,30.3c-29.9,40.1-101.4,106-115.4,115.2c-7.8-11.3-11.9-20.4-20.4-31.1c19.3-17.9,39.4-34.3,31.9-36.8
					c-5.9-2,5-7,3.5-7.8c-3.7-1.9-39.2-45.4-41.3-45.2c-2.5,0.2-4,10.7-7.2,16.2c-4.5,8.3-3.6,8.6-7.4,16.4
					c-4.5,8.3-7.3,11.8-3.6,20.3c3.1,7.1,8.8,13.2,11.9,20.4c2.6,5.8,8.4,25.4,7.1,27.4c-3.4,5.1-53.4,22.3-54.6,22.1
					c-1.3-0.3-20.2-23-29-30c-10.1,8.5-17.3,19.7-26.7,28.2c-3.7-7.8-17.2-17.3-13.4-24.8c2.5-5,5.7-17.6,8.3-25.9
					c2.8-9.1,3.1-18.6,1.6-27.5c-1.7-10.1-5.4-13.2-4.4-24c-10,7.2-30.2,20.1-30.6,24.7c-0.3,3.1,14.6,25.6,22.4,36.2
					c-13.8,8.2-22.1,15.5-28.4,30.6c-12.1-11.6-23.6-30.1-29.8-45c-3.6-8.4-7.3-16.2-4.8-24.1c3.1-7.2,10.1-15.3,15-21.8
					c17-24.1,33.8-47.9,52.6-70.6c11.3-15.2,17.6-18,35.2-15.9c16.6,1.9,22.8,0.5,37.1,1.1c6.9,0,19.1,4.4,26,4.3
					c7.5,0,16.5-3.6,24.4-1.6c11.6,2.9,19.7-1.5,24.6,7c3.7,7.2,10.5,0.7,15.5,8c1.1,1.3,7,4.7,8.1,6
					C725,630.6,821.5,645.5,821.5,645.5"/>
				<path clip-path="url(#SVGID_4_)" fill-rule="evenodd" clip-rule="evenodd" fill="#00144C" d="M583.1,603.9c0,0-0.9,0.7-2.4,2
					c-0.8,0.6-1.6,1.4-2.6,2.4c-0.5,0.5-1,1-1.5,1.6c-0.5,0.6-1,1.2-1.5,1.9c-1.1,1.3-2.1,2.8-3.1,4.5c-1.1,1.6-2,3.5-3,5.3
					c-0.9,1.9-1.8,3.9-2.5,6c-0.8,2.1-1.4,4.2-2.1,6.4c-0.5,2.2-1.1,4.4-1.5,6.5c-0.5,2.2-0.8,4.3-1.2,6.4c-0.6,4.1-1,8-1.3,11.4
					c-0.4,3.3-0.5,6.1-0.6,8.1c-0.1,1.9-0.2,3.1-0.2,3.1c0,0,1-4.4,2.2-10.9c0.6-3.3,1.3-7.1,2.1-11.2c0.8-4.1,1.8-8.4,2.9-12.6
					c0.6-2.1,1.2-4.2,1.9-6.3c0.7-2.1,1.5-4,2.2-5.9c0.9-1.8,1.6-3.7,2.6-5.3c0.9-1.7,1.8-3.2,2.7-4.6c0.9-1.4,1.8-2.6,2.6-3.7
					c0.8-1.1,1.5-2,2.2-2.7C582.4,604.8,583.1,603.9,583.1,603.9"/>
				<path clip-path="url(#SVGID_4_)" fill-rule="evenodd" clip-rule="evenodd" fill="#F2B77B" d="M571.4,542.9
					c14.2,10.4,15.8-19.8,8.7-25.8C569.1,507.9,561,535.3,571.4,542.9"/>
				<path clip-path="url(#SVGID_4_)" fill-rule="evenodd" clip-rule="evenodd" fill="#FFD8A1" d="M574.7,523.1c0-0.1,0-0.2,0-0.3
					c0-0.6,0-1.2,0-1.8c0-0.1,0-0.2,0-0.3c0-0.6,0-1.2,0-1.8c0-0.6,0-1.2,0-1.8c0-0.1,0-0.2,0-0.4c0-0.6,0-1.2,0-1.8
					c0-0.1,0-0.2,0-0.3c0-0.6,0-1.3,0-1.9c0,0,0-0.1,0-0.1c0-0.6,0-1.2,0-1.8c0-0.1,0-0.1,0-0.2c0-0.6,0-1.2,0-1.8
					c0-0.1,0-0.2,0-0.3c0-0.6,0-1.2,0-1.8c0-0.1,0-0.1,0-0.2c0-0.6,0-1.2,0.1-1.8c0,0,0-0.1,0-0.1c0-0.6,0.1-1.2,0.1-1.8
					c0-0.1,0-0.2,0-0.3c0-0.6,0.1-1.2,0.1-1.8c0-0.1,0-0.2,0-0.3c0-0.6,0.1-1.2,0.2-1.9c0.1-0.6,0.1-1.2,0.2-1.8c0-0.1,0-0.2,0-0.3
					c0.1-0.6,0.1-1.2,0.2-1.8c0-0.1,0-0.2,0-0.3c0.1-0.6,0.2-1.2,0.3-1.8c0,0,0,0,0,0c0.3-1.9,0.7-3.9,1.3-5.7
					c14.7-0.2,29.6-1.7,42.9-8.3c13.5-6.6,24.8-17.2,36-26.9c0,4.4,1.3,9.1,1.4,13.8c0.1,5.6,0.9,11.2,2.3,16.6
					c1.4,5.4,3.4,10.7,5.9,15.7c1.2,2.3,8.9,11.2,8.6,13.2c-0.7,5-1.1,10-1.2,15c-0.1,5,1,9.4,1.7,14.3c1-3,2-6.1,3.6-8.8
					s4-5.1,7-6.2c3.5-1.2,7.7-0.4,10.5,2.2c6,5.5,4.4,16.9,0.3,23c-2.7,3.9-6.7,6.8-11.3,8.1c-2.4,0.7-5,0.9-7.4,0.1
					c-2.7-1-3.4-3-4.9-5c-2.6,3.7-4.5,7.8-7.3,11.4c-3,3.7-6.3,7.1-10,10.1c-7.3,5.8-15.9,10.2-25.2,11.5c-0.6,1-1,2.2-1.2,3.8
					c-0.9,5.2-1,9.6-1.4,14.8c-0.1,1-0.2,2.1-0.3,3.2c-5.5,4.1-9.4,4.2-14.1,1.6c0.3-1.8,0.4-3.4,0.5-5c0.4-5.9,1-8,1.8-17.5
					c-3.2-0.7-6.2-1.5-9-2.3c-7.3-2-14-5.6-19.2-10.8c0,0,0,0-0.1-0.1c-3.5-3.5-5.9-7.4-7.7-11.8c-4.7-11.4-4.6-25.2-4.8-37.2
					C574.7,524.4,574.7,523.7,574.7,523.1z"/>
				<path clip-path="url(#SVGID_4_)" fill-rule="evenodd" clip-rule="evenodd" fill="#FFFFFF" d="M617.3,611.9
					c-7.7,9.2-15.6,18.9-24.2,27.3c0.1-11-1.2-25,3.6-33.5l17-1.1c-0.1,1.6-0.3,3.2-0.5,5c4.7,2.6,8.6,2.5,14.1-1.6
					c0.1-1.1,0.2-2.1,0.3-3.2c0.7,0.2,1.3,0.4,2,0.7c16,2.8,14.6,6.8,6.6,20.4c-4.1,6.5-7.9,13.2-11.8,19.9
					c-1.5-5.9-2.7-12.2-3.7-17.1C619.1,623.2,618.7,617.5,617.3,611.9"/>
				<path clip-path="url(#SVGID_4_)" fill-rule="evenodd" clip-rule="evenodd" fill="#D7D7D6" d="M617.3,611.9
					c1.4,5.6,1.8,11.3,3.2,16.9c1.1,4.9,2.2,11.2,3.7,17.1c-8.4,14.6-16.9,29.2-27.8,41.5c-5.6-14.8-4.1-31.5-3.5-46.4
					c0-0.6,0-1.1,0-1.7C601.7,630.7,609.6,621.1,617.3,611.9"/>
				<path clip-path="url(#SVGID_4_)" fill-rule="evenodd" clip-rule="evenodd" fill="#00144C" d="M570.7,635.5c0,0-0.2,0.9-0.6,2.4
					c-0.2,0.8-0.4,1.7-0.6,2.7c-0.2,1.1-0.5,2.3-0.9,3.5c-0.4,1.3-0.8,2.6-1.2,4c-0.4,1.4-1.1,2.9-1.6,4.5c-1.1,3.1-2.4,6.4-3.7,9.7
					c-0.6,1.7-1.2,3.3-1.8,5c-0.6,1.6-1,3.3-1.5,4.9c-0.5,1.6-0.9,3.2-1.2,4.7c-0.3,1.5-0.6,2.9-0.8,4.3c-0.3,1.3-0.3,2.6-0.4,3.6
					c-0.1,1.1-0.1,2-0.2,2.8c-0.1,1.6-0.1,2.4-0.1,2.4s0.2-0.9,0.6-2.4c0.2-0.8,0.4-1.7,0.6-2.7c0.3-1,0.4-2.2,0.9-3.5
					c0.4-1.3,0.8-2.6,1.2-4.1c0.4-1.5,1-2.9,1.5-4.5c1.1-3.1,2.3-6.4,3.6-9.7c0.6-1.7,1.2-3.3,1.8-5c0.6-1.6,1.1-3.3,1.6-4.9
					c0.5-1.6,1-3.1,1.3-4.7c0.3-1.5,0.6-3,0.9-4.3c0.3-1.3,0.4-2.5,0.5-3.6c0.1-1.1,0.1-2,0.2-2.8
					C570.6,636.4,570.7,635.5,570.7,635.5"/>
				<path clip-path="url(#SVGID_4_)" fill-rule="evenodd" clip-rule="evenodd" fill="#003B7C" d="M637.1,607
					c11.6,1.5,20.9,13.4,26.5,22c-10.1,3.5-22,4.7-31.4,10c1.3,2,11.2,9.9,11.9,11.8c1,3-46.2,34.2-47.9,37L637.1,607z"/>
				<path clip-path="url(#SVGID_4_)" fill-rule="evenodd" clip-rule="evenodd" fill="#003B7C" d="M599.1,604.5
					c-1.7,5-2.2,12.6-2.4,17.8c-0.4,9.9-1.1,19.6-1.1,29.4c0,7.3,0.9,29.5,0.9,35.6c-6.6-5.3-11.3-16.1-14.3-23.9
					c-2.9-6.9-5.5-13.8-8.2-20.7c5.9-3,12.9-3,18.8-6.1c-3.1-2.8-17.1-18.6-19.6-20.7L599.1,604.5z"/>
				<path clip-path="url(#SVGID_4_)" fill-rule="evenodd" clip-rule="evenodd" fill="#F2B77B" d="M681.1,553.5
					c-0.9-0.6-1.6-1.8-2.1-3.6c-2.3-8.7,15.1-18.7,14-6.8C692.5,548,685.1,556.3,681.1,553.5"/>
				<path clip-path="url(#SVGID_4_)" fill-rule="evenodd" clip-rule="evenodd" fill="#00144C" d="M676.8,657.3c0,0,0.2-0.4,0.5-1.2
					c0.1-0.4,0.3-0.8,0.5-1.4c0.2-0.5,0.4-1.1,0.7-1.7c0.3-0.6,0.6-1.2,0.9-1.9c0.3-0.7,0.8-1.4,1.1-2.1c0.7-1.5,1.7-2.9,2.6-4.4
					c1-1.4,2-2.9,3-4.2c0.5-0.7,1-1.3,1.4-1.9c0.5-0.6,0.9-1.2,1.3-1.7c0.8-1.1,1.5-1.9,2-2.6c0.5-0.6,0.7-1,0.7-1
					c0,0-0.4,0.2-1.1,0.7c-0.7,0.4-1.7,1-2.7,2c-1.1,0.9-2.3,1.9-3.4,3.2c-0.6,0.6-1.2,1.3-1.7,2c-0.5,0.7-1.1,1.5-1.6,2.2
					c-0.5,0.8-0.9,1.6-1.4,2.4c-0.5,0.8-0.8,1.6-1.1,2.4c-0.3,0.8-0.7,1.6-0.9,2.4c-0.2,0.8-0.4,1.5-0.5,2.2
					c-0.2,0.7-0.3,1.3-0.2,1.9c0,0.6,0,1,0,1.4C676.8,656.9,676.8,657.3,676.8,657.3"/>
				<path clip-path="url(#SVGID_4_)" fill-rule="evenodd" clip-rule="evenodd" fill="#00144C" d="M682,609.2c0,0-0.2,0.1-0.6,0.3
					c-0.4,0.2-1,0.6-1.6,1.3c-0.6,0.7-1.3,1.4-2,2.5c-0.7,1-1.5,2.1-2.2,3.5c-0.7,1.3-1.4,2.8-2.1,4.4c-0.7,1.6-1.3,3.3-1.8,5.1
					c-0.5,1.8-1.1,3.7-1.4,5.6c-0.4,1.9-0.8,3.9-1,5.9c-0.6,3.9-0.9,7.9-1,11.6c-0.2,3.7-0.1,7.2-0.1,10.1c0,3,0.2,5.4,0.2,7.2
					c0.1,1.7,0.1,2.7,0.1,2.7s0.1-1,0.3-2.7c0.2-1.7,0.5-4.2,0.7-7.1c0.3-2.9,0.5-6.4,0.9-10c0.1-1.8,0.4-3.7,0.5-5.6
					c0.2-1.9,0.4-3.9,0.7-5.8c0.2-1.9,0.6-3.9,0.9-5.7c0.4-1.9,0.7-3.7,1.2-5.5c0.5-1.8,0.9-3.5,1.4-5c0.5-1.6,1.1-3.1,1.7-4.4
					c0.5-1.3,1.2-2.5,1.7-3.6c0.5-1,1.1-1.9,1.5-2.6c0.5-0.6,0.9-1.2,1.3-1.4C681.8,609.3,682,609.2,682,609.2"/>
				<path clip-path="url(#SVGID_4_)" fill-rule="evenodd" clip-rule="evenodd" fill="#00144C" d="M699.5,639.3c0,0-0.3,0-0.8,0.1
					c-0.5,0.1-1.3,0.1-2.1,0.4c-0.9,0.3-1.9,0.7-2.9,1.2c-1,0.5-2,1.2-3,1.9c-0.9,0.8-1.8,1.5-2.6,2.3c-0.8,0.8-1.5,1.6-2,2.3
					c-1.1,1.4-1.6,2.5-1.6,2.5c0,0,1.1-0.5,2.6-1.5c1.5-1,3.3-2.3,5.1-3.7c0.9-0.7,1.8-1.4,2.6-2c0.8-0.7,1.6-1.2,2.3-1.7
					c0.7-0.6,1.3-0.9,1.7-1.3C699.3,639.6,699.5,639.3,699.5,639.3"/>
				<path clip-path="url(#SVGID_4_)" fill-rule="evenodd" clip-rule="evenodd" fill="#5F1F16" d="M610.9,524c0,0-3.1-6.4-10.9-7.7
					c-9.6-1.6-12.7,4.5-17.2,2.3c0,0,0.3,3.4,3.3,3c4.3-0.5,6.3-3.5,13.2-2.8C606.3,519.7,609.5,523.1,610.9,524"/>
				<path clip-path="url(#SVGID_4_)" fill-rule="evenodd" clip-rule="evenodd" fill="#5F1F16" d="M635.6,526.9c0,0,3.9-5.9,11.7-6.3
					c9.8-0.3,12,6.1,16.8,4.5c0,0-0.7,3.4-3.7,2.6c-4.2-1.1-5.8-4.2-12.7-4.4C640.7,523.1,637,526.1,635.6,526.9"/>
				<path clip-path="url(#SVGID_4_)" fill-rule="evenodd" clip-rule="evenodd" fill="#5F1F16" d="M611.4,496.8c0,0-5.4-1.2-8.7-1.9
					c-3.2-0.7-8.9-1.5-14.8,0.5c-5.9,2-7.1,2.8-7.9,3c0,0,9.6-2.8,13.7-2.1c4.1,0.7,12.5,5.5,14.9,5.6
					C611.1,502,612,498.2,611.4,496.8"/>
				<path clip-path="url(#SVGID_4_)" fill-rule="evenodd" clip-rule="evenodd" fill="#5F1F16" d="M639.5,499.3c0,0,5.6-0.2,8.9-0.4
					c3.3-0.2,9,0.1,14.5,3.1c5.5,3,6.5,4,7.3,4.4c0,0-9-4.4-13.2-4.4c-4.2,0-13.3,3.3-15.6,2.9C639,504.4,638.7,500.5,639.5,499.3"
					/>
				<path clip-path="url(#SVGID_4_)" fill-rule="evenodd" clip-rule="evenodd" fill="#740200" d="M639.6,551.3c0,0-6.1,9.3-16.4,9.1
					c-10.4-0.2-18.4-6.1-18.4-6.1l-2.5-6.3l10.9,0.3l8.2,2.3l12.8-0.4L639.6,551.3z"/>
				<path clip-path="url(#SVGID_4_)" fill-rule="evenodd" clip-rule="evenodd" fill="#FFFFFF" d="M636.9,551c0,0,0.6,2-0.2,2.2
					c-0.7,0.1-8.4,2-17,1c-8.7-1-14.4-4.3-14.4-4.3l0.1-1.5c0,0,12,1.9,15.8,2.3C625,551,636.9,551,636.9,551"/>
				<path clip-path="url(#SVGID_4_)" fill-rule="evenodd" clip-rule="evenodd" fill="#FFFFFF" d="M630.9,558.6c0,0-1.3-1.3-2.3-1.2
					c-1,0.1-4.7,1-8.8,0.5c-4-0.5-9.7-2.9-11.5-2l9.9,4.9c0,0,7.6-0.4,8-0.4C626.5,560.5,630.9,558.6,630.9,558.6"/>
				<path clip-path="url(#SVGID_4_)" fill-rule="evenodd" clip-rule="evenodd" fill="#B62927" d="M610,547.1
					c4.7-0.1,7.2,1.8,10.1,2.1l1.2,0.1c2.9,0.3,5.7-1.2,10.3-0.3c5.2,1,9.9,1.8,9.9,1.8l0,0.4c0,0-3.3,0.5-9.1,0.9
					c-4.3,0.3-9.1,0.2-11.3,0.2l-1.2-0.1c-2.2-0.4-6.9-1.1-11.1-2.1c-5.6-1.3-8.8-2.4-8.8-2.4l0-0.4
					C600,547.1,604.8,547.2,610,547.1"/>
				<path clip-path="url(#SVGID_4_)" fill-rule="evenodd" clip-rule="evenodd" fill="#B62927" d="M638.9,551.4c0,0-5.4,9-19,8
					c-13.6-1-16.8-11.1-16.8-11.1l-3.1-0.8c0,0,2.6,14,18.9,15.6c16.2,1.7,22.6-12.1,22.6-12.1L638.9,551.4z"/>
			</g>
			<polygon fill-rule="evenodd" clip-rule="evenodd" fill="#706D68" points="853.3,421.5 853.3,421.5 853.2,421.3 853.2,421.3 			
				"/>
			<path fill-rule="evenodd" clip-rule="evenodd" fill="#001964" d="M857.7,521l14.2,1.2c3.8,0.3,6.6,3.7,6.3,7.4l-4.4,50.7
				c-0.3,3.8-3.7,6.6-7.4,6.3l-14.2-1.2c-3.8-0.3-6.6-3.7-6.3-7.4l4.4-50.7C850.6,523.5,853.9,520.7,857.7,521"/>
			<path fill-rule="evenodd" clip-rule="evenodd" fill="#FFD59A" d="M1375.3,533.2c0,4.1-15,72.7-29.3,137.5
				c-13.2,59.5-25.9,115.8-25.9,115.8l-240.9-77.8c-2.4,0.3-4.8,0.5-7.1,0.8c-62.9,7.2-122.5,35.3-185.3,43.5
				c-13.9,1.8-27.9,2.4-41.7,1.3c-12.5-1-24.8-6.3-37.2-7c-23.9-1.2-48-1.3-72.1-3c-5.1-0.4-10.9-1.2-13.7-6
				c-2.9-5-1.1-11.9,1.3-17.4c22-49.5,64.8-39.9,104.2-40.7c32.5-0.6,50.8-17.6,70.7-45.4c17.8-24.9,31.1-57.2,29.9-89.6
				c-0.8-22.9-9.7-44.4-21.7-62.4c-11.6-17.4-27.5-30.1-39-47.4c-10-15-23.5-22.7-40.1-26.2c-18.2-3.9-35.1,0.9-53.2,1.1
				c-19.3,0.2-39-1.1-57.5-7.5c-6.4-2.2-12.6-6.6-16.6-11.8c-7.1-9.1-7.4-20.4,10.5-25c39.6-10.3,79.1-18,119.5-21.9
				c56-5.1,103.5,25.6,153.4,49.6c43.7,21.1,82.4,50.6,124.8,75.2c0.8,0.5,1.6,1,2.5,1.4C1168.6,482.5,1375.3,526.4,1375.3,533.2z"
				/>
			<path fill-rule="evenodd" clip-rule="evenodd" fill="#FFC389" d="M1345.9,670.7c-13.2,59.5-25.9,115.8-25.9,115.8l-240.9-77.8
				c-2.4,0.3-4.8,0.5-7.1,0.8c-62.9,7.2-122.5,35.3-185.3,43.5c-13.9,1.8-27.9,2.4-41.7,1.3c-12.5-1-24.8-6.3-37.2-7
				c-23.9-1.2-48-1.3-72.1-3c-5.1-0.4-10.9-1.2-13.7-6c-2.9-5-1.1-11.9,1.3-17.4c22-49.5,64.8-39.9,104.2-40.7
				c32.5-0.6,50.8-17.6,70.7-45.4c17.8-24.9,31.1-57.2,29.9-89.6c-0.8-22.9-9.7-44.4-21.7-62.4c-11.6-17.4-27.5-30.1-39-47.4
				c-10-15-23.5-22.7-40.1-26.2c-18.2-3.9-35.1,0.9-53.2,1.1c-19.3,0.2-39-1.1-57.5-7.5c-6.4-2.2-12.6-6.6-16.6-11.8
				c46.4,4,126.9-6.2,145.4-8.7c2.5-0.3,5,0.4,6.9,2.1c7.3,6.4,26.2,23.1,37.2,35.1c13.8,15.1,109.2,90.4,138.1,124.3
				c28.9,33.9,86.6,75.3,124.3,86.6C1178.2,638.3,1283.9,658.9,1345.9,670.7z"/>
			<path fill-rule="evenodd" clip-rule="evenodd" fill="#001954" d="M1522,460.9c-6.1-7.6-323-39.4-323-39.4s-50.7,64.1-73.5,164.1
				c-11.1,48.9-15.6,106.4-4.2,169.2c171.7,60.3,220.8,99.2,220.8,99.2s46.5-96.5,92.3-193.8C1480.1,562.8,1525,464.6,1522,460.9z"
				/>
			<path fill-rule="evenodd" clip-rule="evenodd" fill="#00206A" d="M1397.8,652.7c12.4,2.5,24.5,5,36.6,7.4
				c45.7-97.3,90.6-195.5,87.6-199.3c-6.1-7.6-323-39.4-323-39.4s-50.7,64.1-73.5,164.1c10.7,2.6,21.6,5.2,32.8,7.8
				C1241.5,612.2,1314,635.7,1397.8,652.7z"/>
			<path fill-rule="evenodd" clip-rule="evenodd" fill="#001954" d="M1397.8,652.7c-83.8-17-156.3-40.5-239.5-59.3
				c-11.2-2.6-22-5.1-32.8-7.8c-11.1,48.9-15.6,106.4-4.2,169.2c171.7,60.3,220.8,99.2,220.8,99.2s46.5-96.5,92.3-193.8
				C1422.3,657.6,1410.1,655.2,1397.8,652.7z"/>
			<path fill-rule="evenodd" clip-rule="evenodd" fill="#F2B77B" d="M624.3,528.1c-2.1,1.5-4.2,3-6.3,4.5c-0.3,0.2-0.7,0.5-0.8,0.9
				c-0.3,0.9,0.5,1.7,1.4,2.1c1.8,1,3.8,1.6,5.8,1.9L624.3,528.1z"/>
		</g>
	</g>
</g>
</svg>
