<svg width="2903" height="1393" viewBox="0 0 2903 1393" fill="none" xmlns="http://www.w3.org/2000/svg">
<path d="M656.574 235.435C656.574 192.24 641.009 320.412 632.852 362.83C622.369 417.34 609.13 472.231 609.13 528.004C609.13 536.805 606.092 586.393 617.038 575.448" stroke="black" stroke-width="3" stroke-linecap="round"/>
<path d="M727.739 282.878C734.556 275.21 735.647 264.28 735.647 280.243C735.647 332.372 735.647 384.501 735.647 436.631C735.647 490.81 735.647 544.99 735.647 599.169" stroke="black" stroke-width="3" stroke-linecap="round"/>
<path d="M435.17 520.097C435.17 598.699 420.792 686.748 498.868 733.593C566.064 773.911 601.774 797.813 679.857 804.319C713.477 807.121 756.537 785.264 782.212 764.344C825.889 728.755 863.631 695.188 914 668.578C948.101 650.562 1012.4 574.96 1012.4 535.911" stroke="black" stroke-width="3" stroke-linecap="round"/>
<path d="M1085.85 112.904C906.531 71.5238 733.99 12.3764 548.411 8.11021C370.568 4.02186 276.882 114.049 208.854 276.828C107.44 519.498 97.686 845.333 348.775 999.849C501.682 1093.95 725.18 1101.82 883.284 1015.66C1074.25 911.58 1207.67 744.419 1258.55 531.496C1282.52 431.192 1299.94 268.638 1241.57 172.619C1199.08 102.702 1102.33 111.013 1033.16 102.366" stroke="#2CFE0A" stroke-width="15" stroke-linecap="round"/>
<path d="M688.203 804.759C688.203 878.009 770.427 1012.34 838.441 927.322C867.212 891.358 862.163 860.422 862.163 812.666C862.163 772.527 839.468 766.249 814.72 741.5" stroke="black" stroke-width="3" stroke-linecap="round"/>
<path d="M751.461 788.944C751.461 831.556 766.767 859.601 798.905 891.739" stroke="black" stroke-width="3" stroke-linecap="round"/>
<path d="M1263.51 282.276C1289.81 282.276 1321.22 287.298 1346.7 280.133C1360.67 276.203 1368.03 257.477 1373.78 245.453C1385.75 220.423 1414.39 202.439 1441.97 198.498C1462.14 195.617 1452.88 238.004 1452.88 252.272C1452.88 281.228 1457.82 315.788 1448.6 343.453C1443.79 357.885 1441.93 419.808 1421.51 422.359C1392.81 425.947 1382.74 422.065 1382.74 390.407C1382.74 378.693 1383.34 366.793 1381.96 355.143C1379.32 332.86 1370.18 334.88 1350.4 334.88C1308.12 334.88 1266.95 327.866 1224.93 327.866" stroke="#2CFE0A" stroke-width="15" stroke-linecap="round"/>
<path d="M239.474 212.136C211.159 212.136 182.843 212.136 154.528 212.136C145.921 212.136 139.568 212.365 131.927 207.85C104.759 191.796 107.984 161.639 92.1819 136.542C88.5988 130.851 81.4339 101.913 73.0884 110.045C55.7686 126.921 42.0955 148.364 28.2773 168.105C20.0252 179.893 18.5357 191.127 18.5357 205.123C18.5357 224.934 13.758 243.42 11.5218 262.987C7.56861 297.578 3.02707 325.809 21.8479 355.922C28.3395 366.308 40.2418 388.802 56.7226 382.808C73.0413 376.874 75.7142 330.841 81.4662 315.981C83.6745 310.276 82.7301 290.232 89.4542 289.484C103.195 287.958 118.734 288.595 132.512 289.484C157.561 291.1 179.84 303.317 204.405 303.317" stroke="#2CFE0A" stroke-width="15" stroke-linecap="round"/>
<path d="M404.015 1148.91C367.261 1151.73 305.057 1146.12 297.136 1196.62C294.249 1215.02 296.619 1228.13 315.267 1235.51C342.988 1246.48 371.374 1233.29 395.427 1219.76" stroke="#FFA800" stroke-width="3" stroke-linecap="round"/>
<path d="M534.991 1157.49C521.506 1139.86 487.932 1157.12 473.201 1163.82C453.527 1172.76 443.666 1180.76 464.255 1198.05C471.257 1203.93 488.093 1213.67 480.836 1226.2C475.665 1235.13 453.337 1227.25 446.958 1224.06" stroke="#FFA800" stroke-width="3" stroke-linecap="round"/>
<path d="M541.433 1166.08C523.95 1176.57 509.226 1198.61 509.226 1219.29C509.226 1227.05 510.813 1203.84 511.85 1196.14C513.171 1186.35 517.28 1172.25 528.55 1178.97C545.441 1189.04 558.588 1179.32 570.18 1166.44C573.642 1162.6 563.048 1173.88 562.427 1174.91C552.666 1191.07 552.168 1207.98 552.168 1226.2" stroke="#FFA800" stroke-width="3" stroke-linecap="round"/>
<path d="M575.786 1178.97C583.703 1172.53 575.665 1200.69 574.713 1204.49C572.213 1214.49 571.492 1221.35 571.492 1206.88" stroke="#FFA800" stroke-width="3" stroke-linecap="round"/>
<path d="M575.787 1174.67C584.869 1174.67 606.423 1172.35 607.875 1185.41C610.282 1207.07 600.008 1197.1 585.807 1192.21C578.753 1189.77 556.461 1194.34 568.63 1204.73C575.848 1210.89 589.503 1211.53 592.964 1221.91" stroke="#FFA800" stroke-width="3" stroke-linecap="round"/>
<path d="M627.318 1172.52C629.203 1181.95 633.759 1189.84 633.759 1199.72C633.759 1208.55 633.759 1217.38 633.759 1226.2" stroke="#FFA800" stroke-width="3" stroke-linecap="round"/>
<path d="M633.759 1170.38C645.551 1170.38 660.365 1167.25 670.261 1174.67" stroke="#FFA800" stroke-width="3" stroke-linecap="round"/>
<path d="M618.729 1191.85C621.848 1205.88 642.533 1198.54 648.789 1206.88" stroke="#FFA800" stroke-width="3" stroke-linecap="round"/>
<path d="M627.318 1221.91C644.674 1225.42 661.247 1226.2 678.849 1226.2" stroke="#FFA800" stroke-width="3" stroke-linecap="round"/>
<path d="M691.732 1166.08C705.45 1172.18 690.981 1220.19 700.321 1232.64" stroke="#FFA800" stroke-width="3" stroke-linecap="round"/>
<path d="M696.026 1196.14C697.115 1186.34 734.265 1176.82 743.263 1176.82" stroke="#FFA800" stroke-width="3" stroke-linecap="round"/>
<path d="M687.438 1196.14C689.729 1201.87 696.362 1205.77 699.128 1212.13C702.69 1220.31 705.92 1227.6 711.057 1234.79" stroke="#FFA800" stroke-width="3" stroke-linecap="round"/>
<path d="M305.247 1282.03C305.247 1312.17 305.247 1342.31 305.247 1372.45C305.247 1381.11 311.184 1349.97 311.45 1349.07C312.184 1346.57 331.754 1296.09 334.353 1299.21C340.268 1306.3 335.307 1335.05 335.307 1343.58C335.307 1354.56 331.575 1373.33 335.784 1383.66C336.556 1385.55 348.041 1354.92 348.428 1353.6C356.925 1324.74 364.439 1296.59 369.661 1267" stroke="#FF00E5" stroke-width="3" stroke-linecap="round"/>
<path d="M343.896 1378.65C365.435 1346.34 385.093 1316.59 397.335 1279.17C401.936 1265.1 404.015 1248.1 404.015 1271.65C404.015 1298.24 404.514 1324.87 403.896 1351.45C403.694 1360.16 403.589 1375.86 395.427 1363.62" stroke="#FF00E5" stroke-width="3" stroke-linecap="round"/>
<path d="M365.367 1312.09C385.604 1312.47 415.108 1319.81 431.929 1307.79" stroke="#FF00E5" stroke-width="3" stroke-linecap="round"/>
<path d="M444.811 1294.91C442.565 1309.89 441.814 1325.25 435.984 1339.41C433.742 1344.85 420.069 1362.77 421.909 1368.75C423.737 1374.69 449.038 1373.38 452.923 1373.4C464.72 1373.47 473.792 1374.79 481.313 1365.77" stroke="#FF00E5" stroke-width="3" stroke-linecap="round"/>
<path d="M485.607 1316.38C485.607 1340.44 480.4 1362.19 472.247 1384.61C468.913 1393.78 487.618 1389.39 494.196 1389.39" stroke="#FF00E5" stroke-width="3" stroke-linecap="round"/>
<path d="M517.814 1380.8C521.159 1365.41 534.943 1349.9 542.267 1336.42C549.544 1323.04 552.404 1317.12 558.371 1303.86C560.591 1298.92 562.316 1285.94 566.244 1289.66C569.767 1293 567.188 1309.94 567.437 1314.24C568.397 1330.8 571.211 1347.23 573.64 1363.62" stroke="#FF00E5" stroke-width="3" stroke-linecap="round"/>
<path d="M532.844 1344.3C547.629 1343.45 578.899 1341.18 588.669 1331.41" stroke="#FF00E5" stroke-width="3" stroke-linecap="round"/>
<path d="M592.964 1312.09C592.964 1330.94 592.964 1387.48 592.964 1368.63C592.964 1362.39 590.316 1349.53 593.441 1344.06C593.824 1343.39 610.678 1346.74 613.481 1345.97C622.02 1343.61 626.672 1335.04 629.465 1327.36C629.739 1326.6 633.759 1318.15 634.833 1319.01C639.545 1322.78 634.577 1341.75 633.76 1346.32C631.25 1360.38 631.772 1367.25 642.348 1376.5" stroke="#FF00E5" stroke-width="3" stroke-linecap="round"/>
<path d="M781.912 1318.53C779.653 1299.33 733.711 1326.98 729.784 1337.85C718.99 1367.75 754.858 1374.07 771.177 1355.03" stroke="#FF00E5" stroke-width="3" stroke-linecap="round"/>
<path d="M848.474 1314.24C853.424 1335.69 855.494 1358.38 865.174 1378.41C866.587 1381.34 871.474 1396.26 872.092 1389.15C873.636 1371.39 883.186 1355.52 884.975 1337.85C885.702 1330.68 886.436 1329.27 893.564 1329.27" stroke="#FF00E5" stroke-width="3" stroke-linecap="round"/>
<path d="M908.593 1327.12C908.593 1340.12 908.593 1353.12 908.593 1366.13C908.593 1384.24 908.502 1365.82 908.713 1358.97C909.178 1343.83 910.341 1328.72 911.695 1313.64C911.95 1310.79 911.276 1299.36 915.154 1297.42C922.989 1293.5 940.159 1307.63 944.856 1312.33C952.669 1320.14 957.303 1330.96 955.83 1342.15C954.273 1353.99 930.496 1344.09 924.339 1343.58C919.873 1343.21 907.559 1342.75 904.538 1347.4C901.394 1352.23 912.399 1364.24 914.558 1367.44C919.276 1374.42 925.737 1393.71 934.359 1385.09" stroke="#FF00E5" stroke-width="3" stroke-linecap="round"/>
<path d="M964.419 1324.97C964.419 1343.7 963.967 1362.16 962.272 1380.8" stroke="#FF00E5" stroke-width="3" stroke-linecap="round"/>
<path d="M960.125 1342.15C965.03 1333.97 983.895 1334.33 992.332 1333.56" stroke="#FF00E5" stroke-width="3" stroke-linecap="round"/>
<path d="M945.095 1357.18C962.438 1362.08 1016.79 1363.62 998.773 1363.62" stroke="#FF00E5" stroke-width="3" stroke-linecap="round"/>
<path d="M951.536 1380.8C964.617 1380.8 988.265 1384.75 996.626 1372.21" stroke="#FF00E5" stroke-width="3" stroke-linecap="round"/>
<path d="M975.155 1307.79C979.204 1303.98 983.807 1300.69 988.038 1297.06" stroke="#FF00E5" stroke-width="3" stroke-linecap="round"/>
<path d="M627.318 1288.47V1376.5" stroke="#FF00E5" stroke-width="3" stroke-linecap="round"/>
<path d="M1042.8 772.298C1064.57 782.275 1087.1 789.57 1111.11 791.371C1175.08 796.169 1241.52 798.461 1305.38 792.701C1440.58 780.509 1573.61 739.688 1699.7 690.683C1736.35 676.44 1772.42 660.349 1807.27 642.114C1820.22 635.334 1837.51 620.496 1852.51 617.497C1884.04 611.19 1913.9 583.504 1938.56 563.605C1962.48 544.296 1881 552.738 1868.7 552.738C1837.64 552.738 1805.53 554.998 1774.66 550.963C1727.68 544.822 1682.16 519.971 1643.59 493.523C1562.95 438.221 1552.54 336.986 1594.14 253.781C1623.07 195.91 1707.95 161.856 1761.8 133.134C1869.42 75.7399 1986.39 29.087 2108.66 18.2531C2186.66 11.3421 2269.19 8.85782 2347.29 16.2571C2388.31 20.1431 2427.89 38.6307 2466.17 52.6287C2528.98 75.5989 2595.07 95.4931 2655.12 125.15C2698.92 146.78 2727.02 181.634 2758.03 218.297C2827.23 300.117 2890.55 369.38 2894.64 481.991C2898.33 583.457 2874.91 682.141 2844.08 778.064C2833.79 810.062 2826.2 846.308 2805.04 873.428C2791.68 890.56 2754.59 897.028 2735.63 901.816C2585.31 939.774 2401.4 926.647 2274.11 833.065C2173.49 759.094 2142.87 603.162 2016.18 562.496C1992.09 554.762 1966.01 556.73 1941 556.73" stroke="#1D0AFE" stroke-width="15" stroke-linecap="round"/>
<path d="M2045 83.5654C2041.63 109.708 2042.79 136.301 2042.79 162.612C2042.79 177.614 2042.12 189.595 2025.12 191.335C1996.05 194.307 1964.9 203.42 1936.74 194.035" stroke="#1D0AFE" stroke-width="15" stroke-linecap="round"/>
<path d="M1956.62 85.7752C2011.88 85.4576 2067.11 81.3564 2122.33 81.3564" stroke="#1D0AFE" stroke-width="15" stroke-linecap="round"/>
<path d="M2159.89 209.501C2159.89 185.063 2162.46 161.307 2165.53 137.082C2166.99 125.643 2168.16 114.236 2168.6 102.714C2168.71 100.027 2167.77 94.2562 2168.97 91.5441C2171.7 85.4018 2230.34 101.729 2236.36 102.959C2251.71 106.096 2265.89 107.869 2281.41 107.869" stroke="#1D0AFE" stroke-width="15" stroke-linecap="round"/>
<path d="M2168.73 213.92C2210.55 213.92 2251.52 206.641 2292.45 198.454" stroke="#1D0AFE" stroke-width="15" stroke-linecap="round"/>
<path d="M2164.31 132.172C2185.31 161.253 2224.65 171.941 2259.31 171.941" stroke="#1D0AFE" stroke-width="15" stroke-linecap="round"/>
<path d="M1841.74 289.039C1830.79 288.126 1814.42 278.518 1803.93 283.761C1791.49 289.983 1789.82 305.577 1784.29 317.024C1777.19 331.746 1778.09 347.181 1792.39 357.162C1799.63 362.213 1840.41 367.583 1841.61 374.223C1843.53 384.775 1835.5 400.472 1833.39 411.046C1831.41 420.94 1819.32 417.183 1810.81 417.183C1788.71 417.183 1766.62 417.183 1744.52 417.183" stroke="#1D0AFE" stroke-width="15" stroke-linecap="round"/>
<path d="M1892.55 284.62C1882.75 311.222 1875.84 338.827 1869.23 366.368C1866.98 375.741 1856.19 400.878 1871.81 403.682C1907.59 410.104 1963.69 408.241 1991.24 381.22C2011.65 361.197 2016.67 329.555 2018.49 302.295" stroke="#1D0AFE" stroke-width="15" stroke-linecap="round"/>
<path d="M2113.49 304.505C2109.3 329.765 2108.88 361.024 2099.13 385.025C2096.24 392.129 2089.71 398.146 2086.24 405.155C2080.77 416.23 2083.87 431.746 2071.51 419.393" stroke="#1D0AFE" stroke-width="15" stroke-linecap="round"/>
<path d="M2049.42 284.62C2084.12 315.32 2135.87 313.342 2179.77 313.342" stroke="#1D0AFE" stroke-width="15" stroke-linecap="round"/>
<path d="M2020.7 439.277C2045.29 461.408 2091.72 454.743 2122.33 454.743" stroke="#1D0AFE" stroke-width="15" stroke-linecap="round"/>
<path d="M2299.08 326.598C2280.63 323.524 2263.03 318.634 2244.09 317.024C2222.73 315.21 2190.13 308.755 2177.07 331.263C2170.79 342.088 2166.07 363.052 2174.13 373.978C2195.28 402.647 2248 394.358 2278.21 393.371C2288.87 393.023 2300.96 391.56 2311.6 393.371C2320.3 394.853 2311.95 404.937 2309.64 408.591C2298.99 425.398 2286.66 441.479 2273.3 456.216C2264.86 465.536 2253.21 479.512 2239.43 480.765C2222.3 482.321 2204.45 471.564 2189.35 465.176C2181.13 461.701 2169.89 456.176 2162.1 461.371" stroke="#1D0AFE" stroke-width="15" stroke-linecap="round"/>
<path d="M2270.36 540.909C2249.92 543.18 2226.7 542.354 2206.78 546.801C2192.48 549.992 2181.06 555.262 2179.9 570.981C2176.37 618.619 2236.24 603.693 2264.96 607.682C2298.35 612.319 2274.43 661.228 2259.31 674.454C2254.21 678.915 2235.78 675.666 2230.22 674.209C2212.98 669.694 2199.97 664.635 2181.98 664.635" stroke="#1D0AFE" stroke-width="15" stroke-linecap="round"/>
<path d="M2292.45 675.682C2292.45 618.379 2294.92 561.638 2305.71 505.559" stroke="#1D0AFE" stroke-width="15" stroke-linecap="round"/>
<path d="M2283.61 598.353C2314.76 596.937 2345.05 591.725 2376.41 591.725" stroke="#1D0AFE" stroke-width="15" stroke-linecap="round"/>
<path d="M2387.46 505.559C2381.99 528.774 2383.33 553.348 2382.55 576.996C2381.3 614.65 2376.65 651.634 2371.99 688.938" stroke="#1D0AFE" stroke-width="15" stroke-linecap="round"/>
<path d="M2416.18 693.357C2416.18 661.903 2417.69 630.62 2418.39 599.335C2418.9 576.368 2425.41 554.919 2431.52 532.931C2433.16 527.038 2438.99 515.316 2443.18 526.18C2452.04 549.146 2458.32 582.337 2444.41 604.491C2442.48 607.561 2440.54 609.597 2437.29 611.119C2428.46 615.256 2442.31 634.013 2444.53 638.245C2461.21 670.079 2479.64 700.984 2495.72 733.126" stroke="#1D0AFE" stroke-width="15" stroke-linecap="round"/>
<path d="M2537.69 711.032C2537.69 666.026 2537.69 621.02 2537.69 576.014C2537.69 558.179 2535.15 556.535 2552.42 560.303C2572.16 564.608 2592.88 564.099 2612.81 567.422" stroke="#1D0AFE" stroke-width="15" stroke-linecap="round"/>
<path d="M2546.53 702.195H2645.95" stroke="#1D0AFE" stroke-width="15" stroke-linecap="round"/>
<path d="M2537.69 627.075C2564.26 628.23 2590.61 629.285 2617.23 629.285" stroke="#1D0AFE" stroke-width="15" stroke-linecap="round"/>
<path d="M2696.77 708.823C2696.77 662.004 2691.27 611.475 2698.98 565.213" stroke="#1D0AFE" stroke-width="15" stroke-linecap="round"/>
<path d="M2692.35 638.122C2706.21 632.026 2714.96 631.631 2720.34 616.52C2724.58 604.586 2730.94 594.083 2736.54 582.888" stroke="#1D0AFE" stroke-width="15" stroke-linecap="round"/>
<path d="M2698.98 644.75C2710.03 654.837 2722.68 662.904 2733.35 673.473C2741.35 681.399 2747.89 690.668 2756.42 697.776" stroke="#1D0AFE" stroke-width="15" stroke-linecap="round"/>
<path d="M1818.06 283.187C1835.15 284.93 1846.81 298.534 1864.1 298.534" stroke="#1D0AFE" stroke-width="15" stroke-linecap="round"/>
</svg>
