<svg width="335" height="273" viewBox="0 0 335 273" fill="none" xmlns="http://www.w3.org/2000/svg">
<path d="M300.566 67.8077C300.778 70.7834 300.778 73.7598 300.778 76.7356C300.778 167.5 231.695 272.082 105.432 272.082C66.5324 272.082 30.3968 260.816 0 241.26C5.52687 241.898 10.8404 242.11 16.5799 242.11C48.6766 242.11 78.2235 231.27 101.818 212.777C71.634 212.139 46.3388 192.371 37.6235 165.162C41.8752 165.799 46.1261 166.225 50.5904 166.225C56.7546 166.225 62.9194 165.374 68.6583 163.887C37.1989 157.509 13.6035 129.876 13.6035 96.5039V95.654C22.7434 100.756 33.3725 103.944 44.6376 104.369C26.1445 92.0396 14.0288 70.9961 14.0288 47.1887C14.0288 34.4351 17.4292 22.7441 23.3814 12.541C57.1792 54.2035 107.982 81.4112 164.949 84.3876C163.886 79.286 163.248 73.9725 163.248 68.6583C163.248 30.8214 193.858 0 231.907 0C251.675 0 269.53 8.28998 282.072 21.6815C297.588 18.7058 312.468 12.9663 325.647 5.10157C320.545 21.0442 309.705 34.4358 295.463 42.9377C309.28 41.4505 322.672 37.6235 335 32.31C325.649 45.9135 313.957 58.0292 300.566 67.8077V67.8077Z" fill="#7E72F2"/>
</svg>
