<svg width="21" height="24" viewBox="0 0 21 24" fill="none" xmlns="http://www.w3.org/2000/svg">
<path d="M10.5 24C9.65625 24 8.95312 23.7188 8.39062 23.1562C7.78125 22.5938 7.5 21.8438 7.5 21H13.5C13.5 21.8438 13.1719 22.5938 12.6094 23.1562C12 23.7188 11.2969 24 10.5 24ZM20.5781 16.9688C20.8594 17.2969 21 17.6719 21 18.0469C21 18.4219 20.8594 18.7969 20.5781 19.0781C20.2969 19.3594 19.9219 19.5 19.5 19.5H1.5C1.03125 19.5 0.703125 19.3594 0.421875 19.0781C0.140625 18.7969 0 18.4219 0 18.0469C0 17.6719 0.140625 17.2969 0.421875 16.9688L0.5625 16.7812C1.26562 16.0312 1.78125 15.3281 2.15625 14.5781C2.71875 13.3594 3 11.7188 3 9.75C3 7.96875 3.5625 6.375 4.6875 5.01562C5.8125 3.70312 7.21875 2.85938 9 2.48438V1.5C9 1.125 9.14062 0.75 9.42188 0.46875C9.70312 0.1875 10.0781 0 10.5 0C10.875 0 11.25 0.1875 11.5312 0.46875C11.8125 0.75 12 1.125 12 1.5V2.48438C13.7344 2.85938 15.1875 3.70312 16.3125 5.01562C17.4375 6.375 18 7.96875 18 9.75C18 11.7188 18.2812 13.3594 18.8438 14.5781C19.1719 15.3281 19.6875 16.0312 20.4375 16.7812C20.4844 16.875 20.5312 16.9688 20.5781 16.9688Z" fill="#DFDEDE"/>
</svg>
