<svg width="24" height="24" viewBox="0 0 24 24" fill="none" xmlns="http://www.w3.org/2000/svg">
<path d="M23.672 20.7657C23.8595 21.0001 24.0001 21.2813 24.0001 21.5626C24.0001 21.8907 23.8595 22.1719 23.672 22.3594L22.3595 23.6719C22.1251 23.9063 21.8439 24.0001 21.5626 24.0001C21.2345 24.0001 20.9532 23.9063 20.7657 23.6719L16.0782 18.9844C15.8439 18.7969 15.7501 18.5157 15.7501 18.1876V17.4376C13.9689 18.8438 12.0001 19.5001 9.75012 19.5001C7.96887 19.5001 6.32825 19.0782 4.82825 18.1876C3.32825 17.3438 2.15637 16.1719 1.31262 14.6719C0.421997 13.1719 0.00012207 11.5313 0.00012207 9.75006C0.00012207 7.96881 0.421997 6.37506 1.31262 4.87506C2.15637 3.37506 3.32825 2.20319 4.82825 1.31256C6.32825 0.468811 7.96887 6.10352e-05 9.75012 6.10352e-05C11.5314 6.10352e-05 13.1251 0.468811 14.6251 1.31256C16.1251 2.20319 17.297 3.37506 18.1876 4.87506C19.0314 6.37506 19.5001 7.96881 19.5001 9.75006C19.5001 12.0001 18.797 14.0157 17.4376 15.7501H18.1876C18.4689 15.7501 18.7501 15.8907 18.9845 16.0782L23.672 20.7657ZM9.75012 15.7501C10.8282 15.7501 11.8126 15.5157 12.7501 14.9532C13.6876 14.4376 14.3907 13.7344 14.9532 12.7969C15.4689 11.8594 15.7501 10.8751 15.7501 9.75006C15.7501 8.67194 15.4689 7.68756 14.9532 6.75006C14.3907 5.81256 13.6876 5.10944 12.7501 4.54694C11.8126 4.03131 10.8282 3.75006 9.75012 3.75006C8.62512 3.75006 7.64075 4.03131 6.70325 4.54694C5.76575 5.10944 5.06262 5.81256 4.547 6.75006C3.9845 7.68756 3.75012 8.67194 3.75012 9.75006C3.75012 10.8751 3.9845 11.8594 4.547 12.7969C5.06262 13.7344 5.76575 14.4376 6.70325 14.9532C7.64075 15.5157 8.62512 15.7501 9.75012 15.7501Z" fill="#DFDEDE"/>
</svg>
