<svg width="22" height="24" viewBox="0 0 22 24" fill="none" xmlns="http://www.w3.org/2000/svg">
<path d="M11.0001 12.0001C9.87512 12.0001 8.89075 11.7657 7.95325 11.2032C7.01575 10.6876 6.31262 9.98444 5.797 9.04694C5.2345 8.10944 5.00012 7.12506 5.00012 6.00006C5.00012 4.92194 5.2345 3.93756 5.797 3.00006C6.31262 2.06256 7.01575 1.35944 7.95325 0.796936C8.89075 0.281311 9.87512 6.10352e-05 11.0001 6.10352e-05C12.0782 6.10352e-05 13.0626 0.281311 14.0001 0.796936C14.9376 1.35944 15.6407 2.06256 16.2032 3.00006C16.7189 3.93756 17.0001 4.92194 17.0001 6.00006C17.0001 7.12506 16.7189 8.10944 16.2032 9.04694C15.6407 9.98444 14.9376 10.6876 14.0001 11.2032C13.0626 11.7657 12.0782 12.0001 11.0001 12.0001ZM15.2189 13.5001C16.3439 13.5001 17.3751 13.7813 18.3595 14.3438C19.297 14.9063 20.0939 15.7032 20.6564 16.6407C21.2189 17.6251 21.5001 18.6563 21.5001 19.7813V21.7501C21.5001 22.4063 21.2657 22.9219 20.8439 23.3438C20.3751 23.8126 19.8595 24.0001 19.2501 24.0001H2.75012C2.09387 24.0001 1.57825 23.8126 1.15637 23.3438C0.687622 22.9219 0.500122 22.4063 0.500122 21.7501V19.7813C0.500122 18.6563 0.781372 17.6251 1.34387 16.6407C1.90637 15.7032 2.65637 14.9063 3.64075 14.3438C4.57825 13.7813 5.65637 13.5001 6.78137 13.5001H7.57825C8.65637 14.0157 9.78137 14.2501 11.0001 14.2501C12.172 14.2501 13.297 14.0157 14.422 13.5001H15.2189Z" fill="#DFDEDE"/>
</svg>
