<svg width="340" height="199" viewBox="0 0 340 199" fill="none" xmlns="http://www.w3.org/2000/svg">
<rect x="0.333252" y="0.416504" width="339" height="198" rx="10" fill="url(#paint0_linear_810_192)"/>
<mask id="mask0_810_192" style="mask-type:alpha" maskUnits="userSpaceOnUse" x="0" y="0" width="340" height="199">
<rect x="0.333252" y="0.416504" width="339" height="198" rx="10" fill="url(#paint1_linear_810_192)"/>
</mask>
<g mask="url(#mask0_810_192)">
<circle cx="29.9583" cy="88.9581" r="157.958" fill="white" fill-opacity="0.05"/>
</g>
<path d="M278.119 64.1181H272.037L275.841 39.2544H281.923L278.119 64.1181Z" fill="white"/>
<path d="M300.168 39.8623C298.968 39.3592 297.065 38.8037 294.713 38.8037C288.706 38.8037 284.476 42.1892 284.451 47.0295C284.401 50.6006 287.479 52.5841 289.781 53.7749C292.134 54.9916 292.934 55.7858 292.934 56.8704C292.91 58.536 291.033 59.3038 289.282 59.3038C286.853 59.3038 285.552 58.908 283.575 57.9813L282.774 57.584L281.923 63.1654C283.349 63.8523 285.977 64.4619 288.706 64.4886C295.088 64.4886 299.243 61.1555 299.292 55.9974C299.316 53.167 297.691 50.9983 294.187 49.226C292.059 48.0884 290.757 47.3213 290.757 46.1573C290.782 45.0991 291.859 44.0152 294.26 44.0152C296.237 43.9621 297.69 44.4645 298.791 44.9673L299.341 45.2313L300.168 39.8623Z" fill="white"/>
<path d="M308.252 55.3098C308.753 53.8814 310.68 48.3531 310.68 48.3531C310.655 48.4062 311.18 46.8984 311.481 45.9727L311.906 48.1151C311.906 48.1151 313.057 54.0667 313.308 55.3098C312.357 55.3098 309.453 55.3098 308.252 55.3098ZM315.76 39.2544H311.055C309.604 39.2544 308.502 39.7037 307.876 41.3173L298.842 64.1178H305.224C305.224 64.1178 306.274 61.049 306.5 60.3881C307.2 60.3881 313.409 60.3881 314.309 60.3881C314.484 61.261 315.035 64.1178 315.035 64.1178H320.667L315.76 39.2544Z" fill="white"/>
<path d="M266.957 39.2544L261 56.2091L260.349 52.7705C259.248 48.8028 255.794 44.4919 251.94 42.3485L257.396 64.0917H263.828L273.388 39.2544H266.957Z" fill="white"/>
<path d="M255.469 39.2542H245.683L245.583 39.7565C253.217 41.8198 258.272 46.7933 260.349 52.7712L258.222 41.3442C257.872 39.7562 256.796 39.3065 255.469 39.2542Z" fill="white"/>
<path fill-rule="evenodd" clip-rule="evenodd" d="M30.3333 22.0833H38.1665V31.314L25.3333 31.314V27.0833C25.3333 24.3218 27.5719 22.0833 30.3333 22.0833ZM25.3333 33.6217L38.1665 33.6217V40.5448H25.3333V33.6217ZM25.3333 42.8525V47.0832C25.3333 49.8447 27.5719 52.0832 30.3333 52.0832H38.1665V42.8525H25.3333ZM52.1666 52.0832H40.4999V22.0833H62.3333C65.0947 22.0833 67.3333 24.3218 67.3333 27.0833V31.314L54.5 31.314L52.75 31.314L52.1666 31.314V52.0832ZM54.5 33.6217L67.3333 33.6217V40.5448H54.5V33.6217ZM54.5 42.8525V52.0832H62.3333C65.0947 52.0832 67.3333 49.8447 67.3333 47.0832V42.8525H54.5Z" fill="#DFDEDE"/>
<path fill-rule="evenodd" clip-rule="evenodd" d="M30.3333 22.0833H38.1665V31.314L25.3333 31.314V27.0833C25.3333 24.3218 27.5719 22.0833 30.3333 22.0833ZM25.3333 33.6217L38.1665 33.6217V40.5448H25.3333V33.6217ZM25.3333 42.8525V47.0832C25.3333 49.8447 27.5719 52.0832 30.3333 52.0832H38.1665V42.8525H25.3333ZM52.1666 52.0832H40.4999V22.0833H62.3333C65.0947 22.0833 67.3333 24.3218 67.3333 27.0833V31.314L54.5 31.314L52.75 31.314L52.1666 31.314V52.0832ZM54.5 33.6217L67.3333 33.6217V40.5448H54.5V33.6217ZM54.5 42.8525V52.0832H62.3333C65.0947 52.0832 67.3333 49.8447 67.3333 47.0832V42.8525H54.5Z" fill="url(#paint2_linear_810_192)"/>
<path d="M25.672 126C25.352 126 25.056 125.928 24.784 125.784C24.528 125.64 24.4 125.424 24.4 125.136V111.816L23.56 112.872C23.464 112.952 23.368 113.016 23.272 113.064C23.192 113.096 23.112 113.112 23.032 113.112C22.776 113.112 22.568 113.008 22.408 112.8C22.248 112.576 22.168 112.328 22.168 112.056C22.168 111.656 22.336 111.336 22.672 111.096L25.168 108.696C25.36 108.52 25.576 108.432 25.816 108.432C26.088 108.432 26.344 108.512 26.584 108.672C26.824 108.816 26.944 109.016 26.944 109.272V125.136C26.944 125.424 26.808 125.64 26.536 125.784C26.28 125.928 25.992 126 25.672 126ZM30.2224 126C29.9984 126 29.7504 125.928 29.4784 125.784C29.2224 125.624 29.0944 125.408 29.0944 125.136V122.808C29.0944 122.168 29.2864 121.576 29.6704 121.032C30.0544 120.472 30.5424 119.944 31.1344 119.448C31.7264 118.952 32.3584 118.472 33.0304 118.008C33.7024 117.528 34.3344 117.048 34.9264 116.568C35.5184 116.072 36.0064 115.56 36.3904 115.032C36.7744 114.488 36.9664 113.912 36.9664 113.304C36.9664 112.904 36.8704 112.512 36.6784 112.128C36.5024 111.744 36.2224 111.424 35.8384 111.168C35.4544 110.912 34.9584 110.784 34.3504 110.784C33.6784 110.784 33.1024 110.976 32.6224 111.36C32.1584 111.744 31.9264 112.344 31.9264 113.16C31.9264 113.4 31.8064 113.624 31.5664 113.832C31.3424 114.024 31.0224 114.12 30.6064 114.12C30.2544 114.12 29.9744 114.024 29.7664 113.832C29.5584 113.624 29.4544 113.248 29.4544 112.704C29.4544 111.856 29.6784 111.112 30.1264 110.472C30.5904 109.832 31.1904 109.336 31.9264 108.984C32.6784 108.632 33.4944 108.456 34.3744 108.456C35.2864 108.456 36.1344 108.656 36.9184 109.056C37.7024 109.456 38.3264 110.016 38.7904 110.736C39.2704 111.44 39.5104 112.272 39.5104 113.232C39.5104 114.096 39.3184 114.872 38.9344 115.56C38.5664 116.232 38.0864 116.848 37.4944 117.408C36.9024 117.968 36.2704 118.48 35.5984 118.944C34.9424 119.408 34.3184 119.848 33.7264 120.264C33.1504 120.68 32.6704 121.096 32.2864 121.512C31.9184 121.928 31.7344 122.36 31.7344 122.808V123.744H38.7664C38.9904 123.744 39.1824 123.856 39.3424 124.08C39.5184 124.288 39.6064 124.544 39.6064 124.848C39.6064 125.152 39.5184 125.424 39.3424 125.664C39.1824 125.888 38.9904 126 38.7664 126H30.2224ZM46.1138 126.144C44.8658 126.144 43.8498 125.928 43.0658 125.496C42.2978 125.048 41.7298 124.504 41.3618 123.864C40.9938 123.208 40.8098 122.56 40.8098 121.92C40.8098 121.504 40.8978 121.224 41.0738 121.08C41.2658 120.92 41.5778 120.84 42.0098 120.84C42.5218 120.84 42.8658 120.92 43.0418 121.08C43.2338 121.24 43.3298 121.472 43.3298 121.776C43.3298 122.32 43.5538 122.808 44.0018 123.24C44.4658 123.672 45.1778 123.888 46.1378 123.888C47.1298 123.888 47.8578 123.656 48.3218 123.192C48.8018 122.712 49.0418 121.952 49.0418 120.912V120.456C49.0418 119.496 48.7698 118.824 48.2258 118.44C47.6978 118.04 47.0018 117.84 46.1378 117.84C45.8338 117.84 45.6178 117.736 45.4898 117.528C45.3618 117.32 45.2978 117.088 45.2978 116.832C45.2978 116.576 45.3618 116.344 45.4898 116.136C45.6178 115.912 45.8258 115.8 46.1138 115.8C46.6098 115.8 47.0418 115.736 47.4098 115.608C47.7938 115.464 48.0898 115.208 48.2978 114.84C48.5058 114.456 48.6098 113.896 48.6098 113.16C48.6098 112.28 48.4018 111.648 47.9858 111.264C47.5858 110.88 46.9938 110.688 46.2098 110.688C45.2498 110.688 44.5938 110.896 44.2418 111.312C43.8898 111.712 43.7138 112.16 43.7138 112.656C43.7138 112.976 43.6258 113.232 43.4498 113.424C43.2898 113.6 42.9778 113.688 42.5138 113.688C41.9538 113.688 41.5938 113.608 41.4338 113.448C41.2738 113.272 41.1938 112.96 41.1938 112.512C41.1938 112.128 41.2738 111.704 41.4338 111.24C41.5938 110.76 41.8578 110.312 42.2258 109.896C42.6098 109.48 43.1298 109.136 43.7858 108.864C44.4418 108.592 45.2578 108.456 46.2338 108.456C47.1778 108.456 48.0098 108.592 48.7298 108.864C49.4498 109.136 50.0178 109.584 50.4338 110.208C50.8498 110.832 51.0578 111.672 51.0578 112.728C51.0578 113.72 50.8818 114.568 50.5298 115.272C50.1778 115.976 49.7138 116.464 49.1378 116.736C49.8578 117.008 50.4418 117.44 50.8898 118.032C51.3538 118.624 51.5858 119.432 51.5858 120.456V120.912C51.5858 122.176 51.3378 123.192 50.8418 123.96C50.3618 124.728 49.7058 125.288 48.8738 125.64C48.0418 125.976 47.1218 126.144 46.1138 126.144ZM60.5568 126C60.2368 126 59.9408 125.928 59.6688 125.784C59.4128 125.64 59.2848 125.424 59.2848 125.136V122.064H53.4048C53.1488 122.064 52.9328 121.984 52.7568 121.824C52.5968 121.648 52.5168 121.416 52.5168 121.128C52.5168 120.936 52.5648 120.752 52.6608 120.576L58.4448 109.152C58.5888 108.896 58.7568 108.72 58.9488 108.624C59.1568 108.512 59.3648 108.456 59.5728 108.456C59.7968 108.456 60.0608 108.552 60.3648 108.744C60.6688 108.92 60.8208 109.152 60.8208 109.44C60.8208 109.536 60.7888 109.664 60.7248 109.824L55.7808 119.688H59.2848V116.376C59.2848 116.072 59.4128 115.856 59.6688 115.728C59.9408 115.6 60.2368 115.536 60.5568 115.536C60.8768 115.536 61.1648 115.6 61.4208 115.728C61.6928 115.856 61.8288 116.072 61.8288 116.376V119.688H63.0288C63.3168 119.688 63.5328 119.816 63.6768 120.072C63.8208 120.312 63.8928 120.576 63.8928 120.864C63.8928 121.168 63.8048 121.448 63.6288 121.704C63.4528 121.944 63.2528 122.064 63.0288 122.064H61.8288V125.136C61.8288 125.424 61.6928 125.64 61.4208 125.784C61.1648 125.928 60.8768 126 60.5568 126ZM74.7087 126.144C73.5567 126.144 72.5727 125.944 71.7567 125.544C70.9567 125.144 70.3487 124.624 69.9327 123.984C69.5167 123.328 69.3087 122.632 69.3087 121.896C69.3087 121.448 69.4207 121.144 69.6447 120.984C69.8687 120.808 70.1807 120.72 70.5807 120.72C71.0927 120.72 71.4287 120.816 71.5887 121.008C71.7647 121.2 71.8527 121.432 71.8527 121.704C71.8527 122.408 72.1247 122.952 72.6687 123.336C73.2127 123.704 73.8767 123.888 74.6607 123.888C75.5567 123.888 76.2607 123.648 76.7727 123.168C77.2847 122.672 77.5407 121.904 77.5407 120.864V120.408C77.5407 119.384 77.2847 118.624 76.7727 118.128C76.2607 117.632 75.5727 117.384 74.7087 117.384H71.2287C70.7967 117.384 70.5007 117.296 70.3407 117.12C70.1967 116.944 70.1247 116.704 70.1247 116.4C70.1247 116.304 70.1247 116.216 70.1247 116.136C70.1407 116.04 70.1567 115.936 70.1727 115.824L70.7247 109.296C70.7727 108.736 70.9647 108.456 71.3007 108.456H78.4287C78.6847 108.456 78.8767 108.576 79.0047 108.816C79.1487 109.04 79.2207 109.296 79.2207 109.584C79.2207 109.872 79.1487 110.136 79.0047 110.376C78.8767 110.6 78.6847 110.712 78.4287 110.712H72.8847L72.5487 115.344H74.7087C75.7167 115.344 76.6207 115.512 77.4207 115.848C78.2367 116.184 78.8847 116.72 79.3647 117.456C79.8447 118.192 80.0847 119.176 80.0847 120.408V120.864C80.0847 122.144 79.8447 123.176 79.3647 123.96C78.8847 124.728 78.2367 125.288 77.4207 125.64C76.6047 125.976 75.7007 126.144 74.7087 126.144ZM87.2875 126.144C86.2795 126.144 85.3675 125.968 84.5515 125.616C83.7355 125.264 83.0875 124.696 82.6075 123.912C82.1275 123.128 81.8875 122.08 81.8875 120.768V113.808C81.8875 112.512 82.1275 111.472 82.6075 110.688C83.1035 109.904 83.7675 109.336 84.5995 108.984C85.4315 108.632 86.3675 108.456 87.4075 108.456C88.6075 108.456 89.5915 108.672 90.3595 109.104C91.1435 109.536 91.7195 110.08 92.0875 110.736C92.4715 111.392 92.6635 112.056 92.6635 112.728C92.6635 113.144 92.5595 113.432 92.3515 113.592C92.1595 113.736 91.8715 113.808 91.4875 113.808C91.1355 113.808 90.8235 113.744 90.5515 113.616C90.2795 113.488 90.1435 113.232 90.1435 112.848C90.1435 112.176 89.8635 111.656 89.3035 111.288C88.7595 110.904 88.1035 110.712 87.3355 110.712C86.4235 110.712 85.7115 110.968 85.1995 111.48C84.6875 111.976 84.4315 112.752 84.4315 113.808V116.808C84.8315 116.328 85.3195 115.984 85.8955 115.776C86.4715 115.568 87.0955 115.464 87.7675 115.464C88.6795 115.464 89.5035 115.616 90.2395 115.92C90.9755 116.208 91.5595 116.712 91.9915 117.432C92.4395 118.136 92.6635 119.112 92.6635 120.36V120.768C92.6635 122.08 92.4235 123.128 91.9435 123.912C91.4795 124.696 90.8395 125.264 90.0235 125.616C89.2075 125.968 88.2955 126.144 87.2875 126.144ZM87.2875 124.008C88.1835 124.008 88.8795 123.76 89.3755 123.264C89.8715 122.768 90.1195 121.992 90.1195 120.936V120.528C90.1195 119.424 89.8715 118.648 89.3755 118.2C88.8795 117.736 88.1755 117.504 87.2635 117.504C86.3995 117.504 85.7115 117.72 85.1995 118.152C84.6875 118.568 84.4315 119.288 84.4315 120.312V120.936C84.4315 121.992 84.6795 122.768 85.1755 123.264C85.6875 123.76 86.3915 124.008 87.2875 124.008ZM97.2016 126.072C96.8016 126.072 96.4336 125.96 96.0976 125.736C95.7776 125.496 95.6176 125.192 95.6176 124.824C95.6176 124.664 95.6576 124.504 95.7376 124.344L102.338 112.2V110.712H96.6496V112.968C96.6496 113.208 96.5136 113.408 96.2416 113.568C95.9856 113.728 95.6896 113.808 95.3536 113.808C95.0176 113.808 94.7216 113.728 94.4656 113.568C94.2256 113.408 94.1056 113.208 94.1056 112.968V109.296C94.1056 109.088 94.2176 108.896 94.4416 108.72C94.6816 108.544 94.9456 108.456 95.2336 108.456H103.754C104.01 108.456 104.258 108.544 104.498 108.72C104.754 108.896 104.882 109.088 104.882 109.296V111.768C104.882 111.976 104.834 112.208 104.738 112.464C104.642 112.72 104.538 112.96 104.426 113.184L97.9696 125.688C97.8256 125.944 97.5696 126.072 97.2016 126.072ZM111.467 126.144C110.459 126.144 109.547 125.984 108.731 125.664C107.915 125.328 107.267 124.8 106.787 124.08C106.307 123.344 106.067 122.384 106.067 121.2V120.912C106.067 119.68 106.323 118.704 106.835 117.984C107.347 117.248 108.019 116.728 108.851 116.424C108.179 116.168 107.635 115.736 107.219 115.128C106.819 114.52 106.619 113.704 106.619 112.68C106.619 111.656 106.827 110.84 107.243 110.232C107.659 109.608 108.235 109.16 108.971 108.888C109.707 108.6 110.539 108.456 111.467 108.456C112.411 108.456 113.243 108.6 113.963 108.888C114.699 109.16 115.275 109.608 115.691 110.232C116.123 110.84 116.339 111.656 116.339 112.68C116.339 113.704 116.131 114.52 115.715 115.128C115.315 115.736 114.779 116.168 114.107 116.424C114.939 116.728 115.603 117.248 116.099 117.984C116.611 118.704 116.867 119.68 116.867 120.912V121.2C116.867 122.384 116.627 123.344 116.147 124.08C115.667 124.8 115.019 125.328 114.203 125.664C113.387 125.984 112.475 126.144 111.467 126.144ZM111.491 124.032C112.387 124.032 113.083 123.776 113.579 123.264C114.075 122.752 114.323 121.976 114.323 120.936V120.504C114.323 119.48 114.067 118.728 113.555 118.248C113.059 117.752 112.363 117.504 111.467 117.504C110.587 117.504 109.891 117.752 109.379 118.248C108.867 118.728 108.611 119.48 108.611 120.504V120.936C108.611 121.992 108.867 122.776 109.379 123.288C109.891 123.784 110.595 124.032 111.491 124.032ZM111.467 115.392C112.235 115.392 112.827 115.208 113.243 114.84C113.675 114.456 113.891 113.832 113.891 112.968C113.891 112.12 113.675 111.512 113.243 111.144C112.827 110.76 112.235 110.568 111.467 110.568C110.715 110.568 110.123 110.76 109.691 111.144C109.275 111.512 109.067 112.12 109.067 112.968C109.067 113.832 109.275 114.456 109.691 114.84C110.123 115.208 110.715 115.392 111.467 115.392ZM128.763 126.144C127.563 126.144 126.571 125.928 125.787 125.496C125.003 125.064 124.419 124.52 124.035 123.864C123.667 123.208 123.483 122.544 123.483 121.872C123.483 121.456 123.579 121.168 123.771 121.008C123.979 120.848 124.283 120.768 124.683 120.768C125.035 120.768 125.339 120.84 125.595 120.984C125.867 121.112 126.003 121.368 126.003 121.752C126.003 122.424 126.275 122.952 126.819 123.336C127.379 123.704 128.051 123.888 128.835 123.888C129.747 123.888 130.459 123.64 130.971 123.144C131.483 122.632 131.739 121.84 131.739 120.768V117.768C131.339 118.264 130.843 118.616 130.251 118.824C129.675 119.032 129.051 119.136 128.379 119.136C127.483 119.136 126.659 118.992 125.907 118.704C125.171 118.4 124.579 117.896 124.131 117.192C123.699 116.472 123.483 115.488 123.483 114.24V113.808C123.483 112.512 123.723 111.472 124.203 110.688C124.683 109.904 125.323 109.336 126.123 108.984C126.939 108.632 127.851 108.456 128.859 108.456C129.883 108.456 130.803 108.632 131.619 108.984C132.435 109.336 133.083 109.904 133.563 110.688C134.043 111.472 134.283 112.512 134.283 113.808V120.768C134.283 122.08 134.035 123.128 133.539 123.912C133.059 124.696 132.403 125.264 131.571 125.616C130.739 125.968 129.803 126.144 128.763 126.144ZM128.883 117.096C129.747 117.096 130.435 116.888 130.947 116.472C131.475 116.04 131.739 115.312 131.739 114.288V113.664C131.739 112.608 131.483 111.832 130.971 111.336C130.459 110.824 129.755 110.568 128.859 110.568C127.979 110.568 127.283 110.824 126.771 111.336C126.275 111.832 126.027 112.608 126.027 113.664V114.072C126.027 115.176 126.275 115.96 126.771 116.424C127.283 116.872 127.987 117.096 128.883 117.096ZM139.133 126C138.813 126 138.517 125.928 138.245 125.784C137.989 125.64 137.861 125.424 137.861 125.136V111.816L137.021 112.872C136.925 112.952 136.829 113.016 136.733 113.064C136.653 113.096 136.573 113.112 136.493 113.112C136.237 113.112 136.029 113.008 135.869 112.8C135.709 112.576 135.629 112.328 135.629 112.056C135.629 111.656 135.797 111.336 136.133 111.096L138.629 108.696C138.821 108.52 139.037 108.432 139.277 108.432C139.549 108.432 139.805 108.512 140.045 108.672C140.285 108.816 140.405 109.016 140.405 109.272V125.136C140.405 125.424 140.269 125.64 139.997 125.784C139.741 125.928 139.453 126 139.133 126ZM143.683 126C143.459 126 143.211 125.928 142.939 125.784C142.683 125.624 142.555 125.408 142.555 125.136V122.808C142.555 122.168 142.747 121.576 143.131 121.032C143.515 120.472 144.003 119.944 144.595 119.448C145.187 118.952 145.819 118.472 146.491 118.008C147.163 117.528 147.795 117.048 148.387 116.568C148.979 116.072 149.467 115.56 149.851 115.032C150.235 114.488 150.427 113.912 150.427 113.304C150.427 112.904 150.331 112.512 150.139 112.128C149.963 111.744 149.683 111.424 149.299 111.168C148.915 110.912 148.419 110.784 147.811 110.784C147.139 110.784 146.563 110.976 146.083 111.36C145.619 111.744 145.387 112.344 145.387 113.16C145.387 113.4 145.267 113.624 145.027 113.832C144.803 114.024 144.483 114.12 144.067 114.12C143.715 114.12 143.435 114.024 143.227 113.832C143.019 113.624 142.915 113.248 142.915 112.704C142.915 111.856 143.139 111.112 143.587 110.472C144.051 109.832 144.651 109.336 145.387 108.984C146.139 108.632 146.955 108.456 147.835 108.456C148.747 108.456 149.595 108.656 150.379 109.056C151.163 109.456 151.787 110.016 152.251 110.736C152.731 111.44 152.971 112.272 152.971 113.232C152.971 114.096 152.779 114.872 152.395 115.56C152.027 116.232 151.547 116.848 150.955 117.408C150.363 117.968 149.731 118.48 149.059 118.944C148.403 119.408 147.779 119.848 147.187 120.264C146.611 120.68 146.131 121.096 145.747 121.512C145.379 121.928 145.195 122.36 145.195 122.808V123.744H152.227C152.451 123.744 152.643 123.856 152.803 124.08C152.979 124.288 153.067 124.544 153.067 124.848C153.067 125.152 152.979 125.424 152.803 125.664C152.643 125.888 152.451 126 152.227 126H143.683ZM159.575 126.144C158.327 126.144 157.311 125.928 156.527 125.496C155.759 125.048 155.191 124.504 154.823 123.864C154.455 123.208 154.271 122.56 154.271 121.92C154.271 121.504 154.359 121.224 154.535 121.08C154.727 120.92 155.039 120.84 155.471 120.84C155.983 120.84 156.327 120.92 156.503 121.08C156.695 121.24 156.791 121.472 156.791 121.776C156.791 122.32 157.015 122.808 157.463 123.24C157.927 123.672 158.639 123.888 159.599 123.888C160.591 123.888 161.319 123.656 161.783 123.192C162.263 122.712 162.503 121.952 162.503 120.912V120.456C162.503 119.496 162.231 118.824 161.687 118.44C161.159 118.04 160.463 117.84 159.599 117.84C159.295 117.84 159.079 117.736 158.951 117.528C158.823 117.32 158.759 117.088 158.759 116.832C158.759 116.576 158.823 116.344 158.951 116.136C159.079 115.912 159.287 115.8 159.575 115.8C160.071 115.8 160.503 115.736 160.871 115.608C161.255 115.464 161.551 115.208 161.759 114.84C161.967 114.456 162.071 113.896 162.071 113.16C162.071 112.28 161.863 111.648 161.447 111.264C161.047 110.88 160.455 110.688 159.671 110.688C158.711 110.688 158.055 110.896 157.703 111.312C157.351 111.712 157.175 112.16 157.175 112.656C157.175 112.976 157.087 113.232 156.911 113.424C156.751 113.6 156.439 113.688 155.975 113.688C155.415 113.688 155.055 113.608 154.895 113.448C154.735 113.272 154.655 112.96 154.655 112.512C154.655 112.128 154.735 111.704 154.895 111.24C155.055 110.76 155.319 110.312 155.687 109.896C156.071 109.48 156.591 109.136 157.247 108.864C157.903 108.592 158.719 108.456 159.695 108.456C160.639 108.456 161.471 108.592 162.191 108.864C162.911 109.136 163.479 109.584 163.895 110.208C164.311 110.832 164.519 111.672 164.519 112.728C164.519 113.72 164.343 114.568 163.991 115.272C163.639 115.976 163.175 116.464 162.599 116.736C163.319 117.008 163.903 117.44 164.351 118.032C164.815 118.624 165.047 119.432 165.047 120.456V120.912C165.047 122.176 164.799 123.192 164.303 123.96C163.823 124.728 163.167 125.288 162.335 125.64C161.503 125.976 160.583 126.144 159.575 126.144ZM178.822 126C178.502 126 178.206 125.928 177.934 125.784C177.678 125.64 177.55 125.424 177.55 125.136V122.064H171.67C171.414 122.064 171.198 121.984 171.022 121.824C170.862 121.648 170.782 121.416 170.782 121.128C170.782 120.936 170.83 120.752 170.926 120.576L176.71 109.152C176.854 108.896 177.022 108.72 177.214 108.624C177.422 108.512 177.63 108.456 177.838 108.456C178.062 108.456 178.326 108.552 178.63 108.744C178.934 108.92 179.086 109.152 179.086 109.44C179.086 109.536 179.054 109.664 178.99 109.824L174.046 119.688H177.55V116.376C177.55 116.072 177.678 115.856 177.934 115.728C178.206 115.6 178.502 115.536 178.822 115.536C179.142 115.536 179.43 115.6 179.686 115.728C179.958 115.856 180.094 116.072 180.094 116.376V119.688H181.294C181.582 119.688 181.798 119.816 181.942 120.072C182.086 120.312 182.158 120.576 182.158 120.864C182.158 121.168 182.07 121.448 181.894 121.704C181.718 121.944 181.518 122.064 181.294 122.064H180.094V125.136C180.094 125.424 179.958 125.64 179.686 125.784C179.43 125.928 179.142 126 178.822 126ZM188.287 126.144C187.135 126.144 186.151 125.944 185.335 125.544C184.535 125.144 183.927 124.624 183.511 123.984C183.095 123.328 182.887 122.632 182.887 121.896C182.887 121.448 182.999 121.144 183.223 120.984C183.447 120.808 183.759 120.72 184.159 120.72C184.671 120.72 185.007 120.816 185.167 121.008C185.343 121.2 185.431 121.432 185.431 121.704C185.431 122.408 185.703 122.952 186.247 123.336C186.791 123.704 187.455 123.888 188.239 123.888C189.135 123.888 189.839 123.648 190.351 123.168C190.863 122.672 191.119 121.904 191.119 120.864V120.408C191.119 119.384 190.863 118.624 190.351 118.128C189.839 117.632 189.151 117.384 188.287 117.384H184.807C184.375 117.384 184.079 117.296 183.919 117.12C183.775 116.944 183.703 116.704 183.703 116.4C183.703 116.304 183.703 116.216 183.703 116.136C183.719 116.04 183.735 115.936 183.751 115.824L184.303 109.296C184.351 108.736 184.543 108.456 184.879 108.456H192.007C192.263 108.456 192.455 108.576 192.583 108.816C192.727 109.04 192.799 109.296 192.799 109.584C192.799 109.872 192.727 110.136 192.583 110.376C192.455 110.6 192.263 110.712 192.007 110.712H186.463L186.127 115.344H188.287C189.295 115.344 190.199 115.512 190.999 115.848C191.815 116.184 192.463 116.72 192.943 117.456C193.423 118.192 193.663 119.176 193.663 120.408V120.864C193.663 122.144 193.423 123.176 192.943 123.96C192.463 124.728 191.815 125.288 190.999 125.64C190.183 125.976 189.279 126.144 188.287 126.144ZM200.866 126.144C199.858 126.144 198.946 125.968 198.13 125.616C197.314 125.264 196.666 124.696 196.186 123.912C195.706 123.128 195.466 122.08 195.466 120.768V113.808C195.466 112.512 195.706 111.472 196.186 110.688C196.682 109.904 197.346 109.336 198.178 108.984C199.01 108.632 199.946 108.456 200.986 108.456C202.186 108.456 203.17 108.672 203.938 109.104C204.722 109.536 205.298 110.08 205.666 110.736C206.05 111.392 206.242 112.056 206.242 112.728C206.242 113.144 206.138 113.432 205.93 113.592C205.738 113.736 205.45 113.808 205.066 113.808C204.714 113.808 204.402 113.744 204.13 113.616C203.858 113.488 203.722 113.232 203.722 112.848C203.722 112.176 203.442 111.656 202.882 111.288C202.338 110.904 201.682 110.712 200.914 110.712C200.002 110.712 199.29 110.968 198.778 111.48C198.266 111.976 198.01 112.752 198.01 113.808V116.808C198.41 116.328 198.898 115.984 199.474 115.776C200.05 115.568 200.674 115.464 201.346 115.464C202.258 115.464 203.082 115.616 203.818 115.92C204.554 116.208 205.138 116.712 205.57 117.432C206.018 118.136 206.242 119.112 206.242 120.36V120.768C206.242 122.08 206.002 123.128 205.522 123.912C205.058 124.696 204.418 125.264 203.602 125.616C202.786 125.968 201.874 126.144 200.866 126.144ZM200.866 124.008C201.762 124.008 202.458 123.76 202.954 123.264C203.45 122.768 203.698 121.992 203.698 120.936V120.528C203.698 119.424 203.45 118.648 202.954 118.2C202.458 117.736 201.754 117.504 200.842 117.504C199.978 117.504 199.29 117.72 198.778 118.152C198.266 118.568 198.01 119.288 198.01 120.312V120.936C198.01 121.992 198.258 122.768 198.754 123.264C199.266 123.76 199.97 124.008 200.866 124.008ZM210.78 126.072C210.38 126.072 210.012 125.96 209.676 125.736C209.356 125.496 209.196 125.192 209.196 124.824C209.196 124.664 209.236 124.504 209.316 124.344L215.916 112.2V110.712H210.228V112.968C210.228 113.208 210.092 113.408 209.82 113.568C209.564 113.728 209.268 113.808 208.932 113.808C208.596 113.808 208.3 113.728 208.044 113.568C207.804 113.408 207.684 113.208 207.684 112.968V109.296C207.684 109.088 207.796 108.896 208.02 108.72C208.26 108.544 208.524 108.456 208.812 108.456H217.332C217.588 108.456 217.836 108.544 218.076 108.72C218.332 108.896 218.46 109.088 218.46 109.296V111.768C218.46 111.976 218.412 112.208 218.316 112.464C218.22 112.72 218.116 112.96 218.004 113.184L211.548 125.688C211.404 125.944 211.148 126.072 210.78 126.072Z" fill="white"/>
<path d="M27.808 169.144C26.736 169.144 25.784 168.96 24.952 168.592C24.136 168.208 23.496 167.672 23.032 166.984C22.568 166.296 22.336 165.488 22.336 164.56C22.336 164.08 22.44 163.76 22.648 163.6C22.872 163.424 23.2 163.336 23.632 163.336C23.952 163.336 24.232 163.4 24.472 163.528C24.728 163.64 24.864 163.856 24.88 164.176C24.912 164.896 25.144 165.528 25.576 166.072C26.008 166.616 26.72 166.888 27.712 166.888C28.624 166.888 29.328 166.632 29.824 166.12C30.336 165.608 30.592 164.824 30.592 163.768V153.712H27.784C27.512 153.712 27.304 153.6 27.16 153.376C27.016 153.136 26.944 152.864 26.944 152.56C26.944 152.304 27.008 152.056 27.136 151.816C27.264 151.576 27.48 151.456 27.784 151.456H32.008C32.28 151.456 32.536 151.528 32.776 151.672C33.016 151.816 33.136 152.024 33.136 152.296V163.768C33.136 165.08 32.896 166.128 32.416 166.912C31.936 167.696 31.296 168.264 30.496 168.616C29.696 168.968 28.8 169.144 27.808 169.144ZM41.4248 169.144C40.4168 169.144 39.5048 168.968 38.6888 168.616C37.8728 168.264 37.2248 167.696 36.7448 166.912C36.2808 166.128 36.0488 165.08 36.0488 163.768V156.808C36.0488 155.512 36.2808 154.472 36.7448 153.688C37.2248 152.904 37.8728 152.336 38.6888 151.984C39.5048 151.632 40.4168 151.456 41.4248 151.456C42.4328 151.456 43.3448 151.632 44.1608 151.984C44.9768 152.336 45.6248 152.904 46.1048 153.688C46.5848 154.472 46.8248 155.512 46.8248 156.808V163.768C46.8248 165.08 46.5848 166.128 46.1048 166.912C45.6248 167.696 44.9768 168.264 44.1608 168.616C43.3448 168.968 42.4328 169.144 41.4248 169.144ZM41.4248 166.888C42.3048 166.888 43.0008 166.64 43.5128 166.144C44.0248 165.632 44.2808 164.84 44.2808 163.768V156.808C44.2808 155.752 44.0248 154.976 43.5128 154.48C43.0008 153.968 42.3048 153.712 41.4248 153.712C40.5288 153.712 39.8328 153.968 39.3368 154.48C38.8408 154.976 38.5928 155.752 38.5928 156.808V163.768C38.5928 164.84 38.8408 165.632 39.3368 166.144C39.8328 166.64 40.5288 166.888 41.4248 166.888ZM51.0826 169C50.7626 169 50.4666 168.928 50.1946 168.784C49.9386 168.64 49.8106 168.424 49.8106 168.136V152.272C49.8106 151.984 49.9386 151.776 50.1946 151.648C50.4666 151.52 50.7626 151.456 51.0826 151.456C51.4026 151.456 51.6906 151.52 51.9466 151.648C52.2186 151.776 52.3546 151.984 52.3546 152.272V158.872H58.3306V152.272C58.3306 151.984 58.4586 151.776 58.7146 151.648C58.9866 151.52 59.2826 151.456 59.6026 151.456C59.9226 151.456 60.2106 151.52 60.4666 151.648C60.7386 151.776 60.8746 151.984 60.8746 152.272V168.136C60.8746 168.424 60.7386 168.64 60.4666 168.784C60.2106 168.928 59.9226 169 59.6026 169C59.2826 169 58.9866 168.928 58.7146 168.784C58.4586 168.64 58.3306 168.424 58.3306 168.136V160.912H52.3546V168.136C52.3546 168.424 52.2186 168.64 51.9466 168.784C51.6906 168.928 51.4026 169 51.0826 169ZM65.3091 169C64.9891 169 64.6931 168.928 64.4211 168.784C64.1651 168.64 64.0371 168.424 64.0371 168.136V152.296C64.0371 152.008 64.1651 151.8 64.4211 151.672C64.6931 151.528 64.9891 151.456 65.3091 151.456C65.7731 151.456 66.1331 151.56 66.3891 151.768C66.6611 151.976 66.9411 152.352 67.2291 152.896L72.5571 163.288V152.272C72.5571 151.984 72.6851 151.776 72.9411 151.648C73.2131 151.52 73.5091 151.456 73.8291 151.456C74.1491 151.456 74.4371 151.52 74.6931 151.648C74.9651 151.776 75.1011 151.984 75.1011 152.272V168.136C75.1011 168.424 74.9651 168.64 74.6931 168.784C74.4371 168.928 74.1491 169 73.8291 169C73.1571 169 72.6531 168.68 72.3171 168.04L66.5811 157.144V168.136C66.5811 168.424 66.4451 168.64 66.1731 168.784C65.9171 168.928 65.6291 169 65.3091 169ZM84.1964 169C83.8604 169 83.5884 168.92 83.3804 168.76C83.1724 168.584 83.0684 168.384 83.0684 168.16V152.272C83.0684 152.064 83.1724 151.88 83.3804 151.72C83.5884 151.544 83.8604 151.456 84.1964 151.456H88.4444C89.4524 151.456 90.3644 151.632 91.1804 151.984C91.9964 152.336 92.6444 152.904 93.1244 153.688C93.6044 154.472 93.8444 155.512 93.8444 156.808V163.624C93.8444 164.936 93.6044 165.984 93.1244 166.768C92.6444 167.552 91.9964 168.12 91.1804 168.472C90.3644 168.824 89.4524 169 88.4444 169H84.1964ZM85.6124 166.744H88.4444C89.3404 166.744 90.0364 166.488 90.5324 165.976C91.0444 165.464 91.3004 164.68 91.3004 163.624V156.808C91.3004 155.752 91.0444 154.976 90.5324 154.48C90.0364 153.968 89.3404 153.712 88.4444 153.712H85.6124V166.744ZM102.034 169.144C101.026 169.144 100.114 168.968 99.2982 168.616C98.4822 168.264 97.8342 167.696 97.3542 166.912C96.8902 166.128 96.6582 165.08 96.6582 163.768V156.808C96.6582 155.512 96.8902 154.472 97.3542 153.688C97.8342 152.904 98.4822 152.336 99.2982 151.984C100.114 151.632 101.026 151.456 102.034 151.456C103.042 151.456 103.954 151.632 104.77 151.984C105.586 152.336 106.234 152.904 106.714 153.688C107.194 154.472 107.434 155.512 107.434 156.808V163.768C107.434 165.08 107.194 166.128 106.714 166.912C106.234 167.696 105.586 168.264 104.77 168.616C103.954 168.968 103.042 169.144 102.034 169.144ZM102.034 166.888C102.914 166.888 103.61 166.64 104.122 166.144C104.634 165.632 104.89 164.84 104.89 163.768V156.808C104.89 155.752 104.634 154.976 104.122 154.48C103.61 153.968 102.914 153.712 102.034 153.712C101.138 153.712 100.442 153.968 99.9462 154.48C99.4502 154.976 99.2022 155.752 99.2022 156.808V163.768C99.2022 164.84 99.4502 165.632 99.9462 166.144C100.442 166.64 101.138 166.888 102.034 166.888ZM111.548 169C111.276 169 111.02 168.928 110.78 168.784C110.54 168.64 110.42 168.424 110.42 168.136V152.296C110.42 152.024 110.54 151.816 110.78 151.672C111.02 151.528 111.276 151.456 111.548 151.456H120.092C120.38 151.456 120.588 151.576 120.716 151.816C120.86 152.056 120.932 152.304 120.932 152.56C120.932 152.864 120.86 153.136 120.716 153.376C120.572 153.6 120.364 153.712 120.092 153.712H112.964V159.184H116.66C116.932 159.184 117.14 159.296 117.284 159.52C117.428 159.728 117.5 159.968 117.5 160.24C117.5 160.464 117.428 160.688 117.284 160.912C117.156 161.12 116.948 161.224 116.66 161.224H112.964V166.744H120.092C120.364 166.744 120.572 166.864 120.716 167.104C120.86 167.328 120.932 167.592 120.932 167.896C120.932 168.152 120.86 168.4 120.716 168.64C120.588 168.88 120.38 169 120.092 169H111.548Z" fill="white"/>
<path d="M259.576 169.144C258.568 169.144 257.656 168.968 256.84 168.616C256.024 168.264 255.376 167.696 254.896 166.912C254.432 166.128 254.2 165.08 254.2 163.768V156.808C254.2 155.512 254.432 154.472 254.896 153.688C255.376 152.904 256.024 152.336 256.84 151.984C257.656 151.632 258.568 151.456 259.576 151.456C260.584 151.456 261.496 151.632 262.312 151.984C263.128 152.336 263.776 152.904 264.256 153.688C264.736 154.472 264.976 155.512 264.976 156.808V163.768C264.976 165.08 264.736 166.128 264.256 166.912C263.776 167.696 263.128 168.264 262.312 168.616C261.496 168.968 260.584 169.144 259.576 169.144ZM259.576 166.888C260.472 166.888 261.168 166.64 261.664 166.144C262.176 165.632 262.432 164.84 262.432 163.768V156.808C262.432 155.752 262.176 154.976 261.664 154.48C261.168 153.968 260.472 153.712 259.576 153.712C258.68 153.712 257.984 153.968 257.488 154.48C256.992 154.976 256.744 155.752 256.744 156.808V163.768C256.744 164.84 256.992 165.632 257.488 166.144C257.984 166.64 258.68 166.888 259.576 166.888ZM259.6 161.344C259.28 161.344 259.024 161.248 258.832 161.056C258.656 160.848 258.568 160.6 258.568 160.312C258.568 160.008 258.656 159.768 258.832 159.592C259.024 159.4 259.28 159.304 259.6 159.304C259.904 159.304 260.144 159.4 260.32 159.592C260.512 159.768 260.608 160.008 260.608 160.312C260.608 160.6 260.512 160.848 260.32 161.056C260.144 161.248 259.904 161.344 259.6 161.344ZM272.748 169.144C271.74 169.144 270.828 168.968 270.012 168.616C269.196 168.264 268.548 167.696 268.068 166.912C267.604 166.128 267.372 165.08 267.372 163.768V156.808C267.372 155.512 267.604 154.472 268.068 153.688C268.548 152.904 269.196 152.336 270.012 151.984C270.828 151.632 271.74 151.456 272.748 151.456C273.756 151.456 274.668 151.632 275.484 151.984C276.3 152.336 276.948 152.904 277.428 153.688C277.908 154.472 278.148 155.512 278.148 156.808V163.768C278.148 165.08 277.908 166.128 277.428 166.912C276.948 167.696 276.3 168.264 275.484 168.616C274.668 168.968 273.756 169.144 272.748 169.144ZM272.748 166.888C273.644 166.888 274.34 166.64 274.836 166.144C275.348 165.632 275.604 164.84 275.604 163.768V156.808C275.604 155.752 275.348 154.976 274.836 154.48C274.34 153.968 273.644 153.712 272.748 153.712C271.852 153.712 271.156 153.968 270.66 154.48C270.164 154.976 269.916 155.752 269.916 156.808V163.768C269.916 164.84 270.164 165.632 270.66 166.144C271.156 166.64 271.852 166.888 272.748 166.888ZM272.772 161.344C272.452 161.344 272.196 161.248 272.004 161.056C271.828 160.848 271.74 160.6 271.74 160.312C271.74 160.008 271.828 159.768 272.004 159.592C272.196 159.4 272.452 159.304 272.772 159.304C273.076 159.304 273.316 159.4 273.492 159.592C273.684 159.768 273.78 160.008 273.78 160.312C273.78 160.6 273.684 160.848 273.492 161.056C273.316 161.248 273.076 161.344 272.772 161.344ZM280.431 169.84C280.159 169.84 279.935 169.744 279.759 169.552C279.583 169.376 279.495 169.176 279.495 168.952C279.495 168.824 279.527 168.704 279.591 168.592L288.423 150.952C288.551 150.664 288.783 150.52 289.119 150.52C289.359 150.52 289.583 150.608 289.791 150.784C290.015 150.944 290.127 151.16 290.127 151.432C290.127 151.576 290.103 151.704 290.055 151.816L281.247 169.384C281.103 169.688 280.831 169.84 280.431 169.84ZM296.795 169.144C295.787 169.144 294.875 168.968 294.059 168.616C293.243 168.264 292.595 167.696 292.115 166.912C291.651 166.128 291.419 165.08 291.419 163.768V156.808C291.419 155.512 291.651 154.472 292.115 153.688C292.595 152.904 293.243 152.336 294.059 151.984C294.875 151.632 295.787 151.456 296.795 151.456C297.803 151.456 298.715 151.632 299.531 151.984C300.347 152.336 300.995 152.904 301.475 153.688C301.955 154.472 302.195 155.512 302.195 156.808V163.768C302.195 165.08 301.955 166.128 301.475 166.912C300.995 167.696 300.347 168.264 299.531 168.616C298.715 168.968 297.803 169.144 296.795 169.144ZM296.795 166.888C297.691 166.888 298.387 166.64 298.883 166.144C299.395 165.632 299.651 164.84 299.651 163.768V156.808C299.651 155.752 299.395 154.976 298.883 154.48C298.387 153.968 297.691 153.712 296.795 153.712C295.899 153.712 295.203 153.968 294.707 154.48C294.211 154.976 293.963 155.752 293.963 156.808V163.768C293.963 164.84 294.211 165.632 294.707 166.144C295.203 166.64 295.899 166.888 296.795 166.888ZM296.819 161.344C296.499 161.344 296.243 161.248 296.051 161.056C295.875 160.848 295.787 160.6 295.787 160.312C295.787 160.008 295.875 159.768 296.051 159.592C296.243 159.4 296.499 159.304 296.819 159.304C297.123 159.304 297.363 159.4 297.539 159.592C297.731 159.768 297.827 160.008 297.827 160.312C297.827 160.6 297.731 160.848 297.539 161.056C297.363 161.248 297.123 161.344 296.819 161.344ZM309.967 169.144C308.959 169.144 308.047 168.968 307.231 168.616C306.415 168.264 305.767 167.696 305.287 166.912C304.823 166.128 304.591 165.08 304.591 163.768V156.808C304.591 155.512 304.823 154.472 305.287 153.688C305.767 152.904 306.415 152.336 307.231 151.984C308.047 151.632 308.959 151.456 309.967 151.456C310.975 151.456 311.887 151.632 312.703 151.984C313.519 152.336 314.167 152.904 314.647 153.688C315.127 154.472 315.367 155.512 315.367 156.808V163.768C315.367 165.08 315.127 166.128 314.647 166.912C314.167 167.696 313.519 168.264 312.703 168.616C311.887 168.968 310.975 169.144 309.967 169.144ZM309.967 166.888C310.863 166.888 311.559 166.64 312.055 166.144C312.567 165.632 312.823 164.84 312.823 163.768V156.808C312.823 155.752 312.567 154.976 312.055 154.48C311.559 153.968 310.863 153.712 309.967 153.712C309.071 153.712 308.375 153.968 307.879 154.48C307.383 154.976 307.135 155.752 307.135 156.808V163.768C307.135 164.84 307.383 165.632 307.879 166.144C308.375 166.64 309.071 166.888 309.967 166.888ZM309.991 161.344C309.671 161.344 309.415 161.248 309.223 161.056C309.047 160.848 308.959 160.6 308.959 160.312C308.959 160.008 309.047 159.768 309.223 159.592C309.415 159.4 309.671 159.304 309.991 159.304C310.295 159.304 310.535 159.4 310.711 159.592C310.903 159.768 310.999 160.008 310.999 160.312C310.999 160.6 310.903 160.848 310.711 161.056C310.535 161.248 310.295 161.344 309.991 161.344Z" fill="white"/>
<defs>
<linearGradient id="paint0_linear_810_192" x1="169.833" y1="0.416504" x2="169.833" y2="198.417" gradientUnits="userSpaceOnUse">
<stop stop-color="#ACACAC"/>
<stop offset="1" stop-color="#4F4F4F"/>
</linearGradient>
<linearGradient id="paint1_linear_810_192" x1="169.833" y1="0.416504" x2="169.833" y2="198.417" gradientUnits="userSpaceOnUse">
<stop stop-color="#9A9A9A"/>
<stop offset="1" stop-color="#5A5A5A"/>
</linearGradient>
<linearGradient id="paint2_linear_810_192" x1="46.3333" y1="22.0833" x2="46.3333" y2="52.0832" gradientUnits="userSpaceOnUse">
<stop stop-color="white"/>
<stop offset="1" stop-color="white" stop-opacity="0"/>
</linearGradient>
</defs>
</svg>
