<svg width="42" height="79" viewBox="0 0 42 79" fill="none" xmlns="http://www.w3.org/2000/svg">
<path d="M40.0938 49.1335L33.375 45.3835C34.1562 41.6335 34.1562 38.0398 33.375 34.2898L40.0938 30.5398C40.875 30.071 41.1875 29.1335 40.875 28.3523C39.1562 22.7273 36.1875 17.7273 32.4375 13.5085C31.8125 12.8835 30.875 12.7273 30.0938 13.196L23.375 16.946C20.5625 14.6023 17.4375 12.7273 14 11.4773V3.82104C14 3.03979 13.375 2.25854 12.4375 2.10229C6.65625 0.696045 0.875 0.852295 -4.59375 2.10229C-5.53125 2.25854 -6 3.03979 -6 3.82104V11.4773C-9.59375 12.7273 -12.7188 14.6023 -15.5312 17.1023L-22.25 13.196C-23.0312 12.7273 -23.9688 12.8835 -24.5938 13.5085C-28.3438 17.7273 -31.3125 22.7273 -33.0312 28.3523C-33.3438 29.1335 -33.0312 30.071 -32.25 30.5398L-25.5312 34.2898C-26.1562 38.0398 -26.1562 41.6335 -25.5312 45.3835L-32.25 49.1335C-33.0312 49.6023 -33.3438 50.5398 -33.0312 51.321C-31.3125 56.946 -28.3438 61.946 -24.5938 66.1648C-23.9688 66.7898 -23.0312 66.946 -22.25 66.4773L-15.5312 62.7273C-12.7188 65.071 -9.59375 66.946 -6 68.196V75.8523C-6 76.6335 -5.375 77.4148 -4.59375 77.7273C1.1875 78.9773 6.96875 78.821 12.4375 77.7273C13.375 77.4148 14 76.6335 14 75.8523V68.196C17.4375 66.946 20.5625 65.071 23.375 62.7273L30.0938 66.4773C30.875 66.946 31.8125 66.7898 32.4375 66.1648C36.3438 61.946 39.1562 56.946 41.0312 51.321C41.1875 50.5398 40.875 49.6023 40.0938 49.1335ZM4 52.2585C-3.03125 52.2585 -8.5 46.7898 -8.5 39.7585C-8.5 32.8835 -3.03125 27.2585 4 27.2585C10.875 27.2585 16.5 32.8835 16.5 39.7585C16.5 46.7898 10.875 52.2585 4 52.2585Z" fill="#882BFF" fill-opacity="0.3"/>
</svg>
